<svg width="2400" height="997" viewBox="0 0 2400 997" fill="none" xmlns="http://www.w3.org/2000/svg">
<g clip-path="url(#clip0_1_447)">
<rect width="2400" height="997" fill="white"/>
<path d="M2483 -26H-105V1029H2483V-26Z" fill="#061C26"/>
<g clip-path="url(#clip1_1_447)">
<path d="M1890.15 1146.77C1867.45 1296.62 1805.72 1440.88 1715.74 1562.81V1562.84C1702.73 1556.87 1689.88 1550.54 1677.17 1543.77C1663.34 1536.39 1649.66 1528.48 1636.73 1519.57C1623.05 1510.13 1610.19 1499.61 1598.93 1487.4C1585.16 1472.52 1574.03 1455.51 1564.73 1437.44C1557.96 1424.31 1552.13 1410.63 1547.03 1396.78C1533.09 1359.26 1523.57 1320.1 1518.74 1280.38L1518.49 1280.19C1535.2 1259.34 1547.41 1234.78 1556.57 1209.52C1559.43 1201.61 1562.07 1193.62 1564.37 1185.54C1577.06 1142 1581.91 1096.04 1574.56 1051.43C1568.95 1017.49 1548.86 988.293 1535.84 956.57C1276.06 323.66 1816.16 327.352 1820.71 327.379C1709.67 445.363 1773.11 695.43 1857.57 920.767C1874.92 967.033 1893.12 1020.54 1895.54 1069.89C1896.81 1095.59 1893.98 1121.32 1890.15 1146.77Z" fill="#ED7121"/>
<path d="M2355.93 1359.04C2292.43 1425.01 2256.46 1548.32 2296.48 1631.33C2268.67 1634.19 2240.66 1636.5 2212.55 1638.11C2096.31 1644.85 1978.5 1639.94 1866.73 1613.82C1814.83 1601.69 1764.26 1585.04 1715.75 1562.84V1562.81C1805.73 1440.88 1867.45 1296.62 1890.15 1146.77C1893.98 1121.32 1896.82 1095.59 1895.54 1069.89C1893.12 1020.54 1874.92 967.034 1857.57 920.767C1773.11 695.43 1709.67 445.363 1820.71 327.38C1866.81 278.393 1943.05 252.166 2060.37 259.965C2460.17 286.525 2254.65 840.03 2215.32 1020.9C2212.16 1035.48 2211.91 1050.57 2210.58 1065.42C2206.61 1109.41 2204.36 1154.13 2212.83 1197.48C2221.29 1240.83 2241.47 1283.21 2275.69 1311.13C2293.01 1325.26 2312.3 1336.94 2333 1346.74C2340.72 1350.4 2348.66 1353.82 2356.73 1357.01L2355.93 1359.04Z" fill="#F59F23"/>
<path d="M1559.35 214.892C1683.72 76.9526 1620.21 -175.279 1356.27 -11.1397C1092.36 152.999 1093.8 637.84 1227.85 860.429C1361.91 1083.02 1667.84 960.151 1519.61 749.412C1388.47 562.986 1434.98 352.858 1559.35 214.892Z" fill="#0971B7"/>
<path d="M1318.03 591.268C1353.53 591.268 1382.3 562.489 1382.3 526.989C1382.3 491.489 1353.53 462.71 1318.03 462.71C1282.52 462.71 1253.75 491.489 1253.75 526.989C1253.75 562.489 1282.52 591.268 1318.03 591.268Z" fill="#35A6DE"/>
<path d="M1318.03 310.56C1353.53 310.56 1382.3 281.781 1382.3 246.281C1382.3 210.781 1353.53 182.002 1318.03 182.002C1282.52 182.002 1253.75 210.781 1253.75 246.281C1253.75 281.781 1282.52 310.56 1318.03 310.56Z" fill="#35A6DE"/>
<path d="M1157.36 449.554C1192.86 449.554 1221.63 420.775 1221.63 385.275C1221.63 349.775 1192.86 320.996 1157.36 320.996C1121.85 320.996 1093.08 349.775 1093.08 385.275C1093.08 420.775 1121.85 449.554 1157.36 449.554Z" fill="#35A6DE"/>
<path d="M2135.28 309.395C2261.31 433.762 2491.81 370.26 2341.83 106.316C2191.84 -157.599 1748.83 -156.156 1545.42 -22.1029C1342.01 111.95 1454.3 417.886 1646.86 269.651C1817.22 138.511 2009.25 185.028 2135.28 309.395Z" fill="#35A6DE"/>
<path d="M2199.84 83.0023C2189.76 80.6154 2183.55 70.5406 2185.93 60.4658C2188.32 50.391 2198.39 44.174 2208.47 46.5609C2218.52 48.9477 2224.76 59.0225 2222.37 69.0974C2219.99 79.1444 2209.91 85.3892 2199.84 83.0023Z" fill="#FFF6E1"/>
<path d="M2148.39 36.2262C2153.07 26.996 2149.37 15.7239 2140.14 11.0493C2130.91 6.37475 2119.64 10.0678 2114.97 19.298C2110.29 28.5282 2113.98 39.8002 2123.21 44.4748C2132.44 49.1494 2143.72 45.4564 2148.39 36.2262Z" fill="#FFF6E1"/>
<path d="M2050.6 27.7991C2040.53 25.4123 2034.31 15.3375 2036.7 5.26264C2039.08 -4.81218 2049.16 -11.0291 2059.23 -8.64227C2069.31 -6.25539 2075.52 3.81942 2073.14 13.8942C2070.72 23.9413 2060.65 30.186 2050.6 27.7991Z" fill="#FFF6E1"/>
<path d="M1974.17 28.8643C1984.51 28.5156 1992.61 19.8504 1992.26 9.51005C1991.91 -0.830338 1983.25 -8.93022 1972.91 -8.58154C1962.57 -8.23286 1954.47 0.432345 1954.81 10.7727C1955.16 21.1131 1963.83 29.213 1974.17 28.8643Z" fill="#FFF6E1"/>
<path d="M1949.91 65.073C1949.91 65.073 2133.31 65.073 2229.87 65.073C2326.42 65.073 2368.53 -0.954469 2385.37 1.46016C2402.22 3.87478 2404.55 65.073 2404.55 65.073C2404.55 65.073 2480.96 22.5812 2493.59 33.2389C2506.22 43.8965 2508.3 65.073 2508.3 65.073C2508.3 65.073 2527.73 29.8806 2550.65 52.6946C2573.58 75.4809 2639.1 451.247 2476.74 451.247C2314.38 451.247 2243.02 451.247 2011.16 451.247C1779.3 451.247 1741.83 65.073 1949.91 65.073Z" fill="#F59F23"/>
<path d="M1753.24 278.809C1728.4 169.096 1798.84 -4.47933 1985.38 9.50885C2171.92 23.497 2068.53 134.209 2068.53 134.209C2068.53 134.209 2381.99 133.82 2256.12 359.186C2256.12 359.186 2521.81 603.313 2194.67 673.698C2194.67 673.698 2222.82 879.496 2024.15 820.462C1825.49 761.429 1753.24 278.809 1753.24 278.809Z" fill="#C92B17"/>
<path d="M2382.71 110.119C2382.71 110.119 2412.85 52.6953 2384.24 52.6953C2355.59 52.6953 2382.71 110.119 2382.71 110.119Z" fill="#ED7121"/>
<path d="M1887.43 92.5783C1841.31 -13.5542 1762.73 -23.0462 1682.66 24.6913C1682.61 24.719 1323.3 234.209 1349.89 278.921C1364.29 303.123 1411.23 323.355 1455.69 332.764C1400.15 481.416 1389.41 650.274 1474.53 774.169C1640.84 1016.21 1909.03 906.612 1948.6 875.722C1999.56 836.005 1920.1 800.591 1971.25 745.859C2005.2 709.529 1930.45 693.709 1963.12 671.755C1995.79 649.802 1989.74 604.479 1989.74 604.479C1989.74 604.479 1989.74 604.479 2037.89 604.479C2131.12 604.479 1887.43 92.5783 1887.43 92.5783Z" fill="#ED7121"/>
<path d="M1681.11 609.946C1562.49 665.816 1427.68 750.161 1411.86 799.203C1393.93 854.795 1431.43 865.758 1431.43 865.758C1431.43 865.758 1413.94 913.995 1462.63 945.69C1511.31 977.358 1548.33 941.832 1548.33 941.832C1548.33 941.832 1573.56 971.668 1617.13 932.757C1655.55 898.425 1678.05 741.03 1681.11 609.946Z" fill="#F59F23"/>
<path d="M1419.27 278.921C1419.27 278.921 1481.61 261.074 1483.11 281.751C1484.63 302.456 1446.64 300.985 1419.27 278.921Z" fill="#FFF6E1"/>
<path d="M1985.6 585.189H1932.45C1932.45 585.189 2022.99 522.797 2015.1 560.821C2012.16 575.114 1999.73 585.189 1985.6 585.189Z" fill="#C92B17"/>
<path d="M2470.11 792.764C2594.77 792.764 2695.83 699.817 2695.83 585.162C2695.83 470.506 2594.77 377.56 2470.11 377.56C2345.44 377.56 2244.38 470.506 2244.38 585.162C2244.38 699.817 2345.44 792.764 2470.11 792.764Z" fill="#0971B7"/>
<path d="M2552.23 539.533C2489.18 395.933 2321.35 384.054 2321.35 384.054C2154.99 384.054 2113.35 536.73 2144.11 688.352C2127.4 678.666 2108 673.115 2087.29 673.115C2024.68 673.115 1973.89 723.878 1973.89 786.519C1973.89 849.133 2024.65 899.923 2087.29 899.923C2093.18 899.923 2098.92 899.479 2104.56 898.619C2115.32 926.345 2142.27 946.023 2173.83 946.023C2204.47 946.023 2230.78 927.483 2242.13 901.006C2285.21 952.712 2338.39 986.628 2396.14 986.628C2639.66 986.628 2522.79 695.846 2522.79 695.846C2522.79 695.846 2615.29 683.134 2552.23 539.533Z" fill="#35A6DE"/>
<path d="M2146.85 696.679C2146.85 696.679 1974.64 292.576 2119.13 437.703C2119.13 437.703 2228.03 226.076 2232.56 412.53C2237.08 598.983 2146.85 696.679 2146.85 696.679Z" fill="#ED7121"/>
<path d="M2116.16 747.58C2057.6 741.862 2024.6 796.039 2050.24 830.648C2075.91 865.258 2148.16 854.017 2148.16 854.017C2148.16 854.017 2144.74 940.916 2209.41 900.089C2209.41 900.089 2190.04 754.796 2116.16 747.58Z" fill="#0971B7"/>
<path d="M2270.96 969.077C2281.94 935.12 2263.31 898.697 2229.35 887.724C2195.39 876.751 2158.97 895.383 2148 929.34C2137.02 963.297 2155.65 999.72 2189.61 1010.69C2223.57 1021.67 2259.99 1003.03 2270.96 969.077Z" fill="#C92B17"/>
<path d="M1552.77 807.585C1562.57 807.585 1570.51 799.645 1570.51 789.85C1570.51 780.055 1562.57 772.115 1552.77 772.115C1542.98 772.115 1535.04 780.055 1535.04 789.85C1535.04 799.645 1542.98 807.585 1552.77 807.585Z" fill="#C92B17"/>
<path d="M1621.05 820.601C1630.01 824.542 1634.09 835.033 1630.12 843.998C1626.18 852.963 1615.69 857.042 1606.73 853.074C1597.76 849.132 1593.68 838.641 1597.65 829.677C1601.59 820.712 1612.08 816.632 1621.05 820.601Z" fill="#C92B17"/>
<path d="M1689.54 850.771C1698.51 854.712 1702.59 865.203 1698.62 874.168C1694.68 883.132 1684.19 887.212 1675.22 883.243C1666.26 879.302 1662.18 868.811 1666.15 859.847C1670.12 850.882 1680.58 846.83 1689.54 850.771Z" fill="#C92B17"/>
<path d="M1841.39 507.18C1856.93 439.455 1814.63 371.952 1746.9 356.409C1679.18 340.865 1611.68 383.167 1596.13 450.892C1580.59 518.617 1622.89 586.12 1690.62 601.663C1758.34 617.207 1825.84 574.905 1841.39 507.18Z" fill="#F59F23"/>
<path d="M1951.6 689.879C1951.6 689.879 1955.9 734.536 1856.21 734.536C1765.34 734.536 1787.6 641.809 1787.6 641.809L1951.6 689.879Z" fill="#061C26"/>
<path d="M1227.65 490.031C1229.31 479.819 1222.38 470.193 1212.17 468.53C1201.96 466.868 1192.33 473.798 1190.67 484.01C1189.01 494.222 1195.94 503.849 1206.15 505.512C1216.36 507.174 1225.99 500.244 1227.65 490.031Z" fill="#FFF6E1"/>
<path d="M1189.8 584.717C1200.15 584.717 1208.53 576.33 1208.53 565.983C1208.53 555.637 1200.15 547.249 1189.8 547.249C1179.45 547.249 1171.07 555.637 1171.07 565.983C1171.07 576.33 1179.45 584.717 1189.8 584.717Z" fill="#FFF6E1"/>
<path d="M1189.8 663.707C1200.15 663.707 1208.53 655.319 1208.53 644.972C1208.53 634.626 1200.15 626.238 1189.8 626.238C1179.45 626.238 1171.07 634.626 1171.07 644.972C1171.07 655.319 1179.45 663.707 1189.8 663.707Z" fill="#FFF6E1"/>
<path d="M1209.15 742.668C1219.49 742.668 1227.88 734.28 1227.88 723.933C1227.88 713.587 1219.49 705.199 1209.15 705.199C1198.8 705.199 1190.41 713.587 1190.41 723.933C1190.41 734.28 1198.8 742.668 1209.15 742.668Z" fill="#FFF6E1"/>
<path d="M1723.22 448.668C1731.87 438.825 1730.91 423.83 1721.07 415.175C1711.22 406.52 1696.23 407.483 1687.57 417.325C1678.92 427.168 1679.88 442.163 1689.72 450.818C1699.57 459.473 1714.56 458.51 1723.22 448.668Z" fill="#FFF6E1"/>
<path d="M1788.57 454.148C1800.23 448.164 1804.83 433.86 1798.85 422.2C1792.86 410.54 1778.56 405.939 1766.9 411.923C1755.24 417.907 1750.64 432.21 1756.62 443.87C1762.6 455.53 1776.91 460.132 1788.57 454.148Z" fill="#FFF6E1"/>
<path d="M1862.75 453.091C1873.82 446.077 1877.11 431.417 1870.1 420.346C1863.08 409.276 1848.42 405.988 1837.35 413.002C1826.28 420.016 1822.99 434.676 1830.01 445.747C1837.02 456.817 1851.68 460.105 1862.75 453.091Z" fill="#FFF6E1"/>
<path d="M1945.53 438.452C1948.55 425.7 1940.67 412.91 1927.92 409.884C1915.17 406.858 1902.38 414.742 1899.35 427.494C1896.32 440.246 1904.21 453.036 1916.96 456.062C1929.71 459.088 1942.5 451.204 1945.53 438.452Z" fill="#FFF6E1"/>
<path d="M2202.2 638.7C2202.2 638.7 2278.19 551.94 2372.14 573.894C2466.11 595.848 2491.56 692.127 2491.56 692.127C2491.56 692.127 2338.94 765.093 2202.2 638.7Z" fill="#FFF6E1"/>
<path d="M2418.85 662.696C2431.14 625.946 2411.31 586.19 2374.56 573.898C2337.81 561.607 2298.05 581.435 2285.76 618.185C2273.47 654.936 2293.3 694.692 2330.05 706.983C2366.8 719.275 2406.56 699.447 2418.85 662.696Z" fill="#061C26"/>
<path d="M2387.55 648.893C2392.19 629.387 2380.13 609.817 2360.62 605.181C2341.12 600.546 2321.55 612.601 2316.91 632.107C2312.28 651.613 2324.33 671.184 2343.84 675.819C2363.34 680.454 2382.91 668.399 2387.55 648.893Z" fill="#0971B7"/>
<path d="M2200.92 248.974V29.6591C2200.92 29.6591 2167.81 26.6061 2167.81 115.614C2167.81 204.622 2200.92 248.974 2200.92 248.974Z" fill="#ED7121"/>
<path d="M2295.87 171.678C2295.87 230.878 2231.7 249.002 2231.7 249.002V94.3545C2231.7 94.3545 2262.34 103.014 2281.3 127.909C2289.73 139.039 2295.87 153.388 2295.87 171.678Z" fill="#FFF6E1"/>
<path d="M2281.68 134.154C2281.68 161.742 2259.31 184.112 2231.7 184.112V94.3545C2231.7 94.3545 2262.34 103.014 2281.3 127.909C2281.55 129.963 2281.68 132.045 2281.68 134.154Z" fill="#0971B7"/>
<path d="M2202.2 638.7C2202.2 638.7 2277.91 548.36 2371.86 570.342C2465.83 592.295 2491.56 692.127 2491.56 692.127C2491.56 692.127 2388.57 597.596 2202.2 638.7Z" fill="#ED7121"/>
<path d="M2491.59 692.155C2486.59 688.269 2481.29 684.772 2475.94 681.441C2446.49 663.29 2413.93 650.384 2380.35 642.225C2346.82 634.037 2312.16 630.707 2277.6 631.511C2252.43 632.067 2227.26 634.703 2202.2 638.728C2226.65 631.872 2251.9 627.681 2277.35 626.072C2347.1 621.659 2420.09 638.117 2476.99 679.859C2482.07 683.662 2487.07 687.658 2491.59 692.155Z" fill="#061C26"/>
<path d="M2528.84 634.232C2528.84 634.232 2285.35 554.355 2230.2 530.153C2175.08 505.951 2313.74 530.153 2313.74 530.153C2313.74 530.153 2271.08 484.913 2297.25 484.664C2323.43 484.414 2426.31 559.462 2426.31 559.462C2426.31 559.462 2418.96 536.398 2439.66 545.279C2460.37 554.133 2528.84 634.232 2528.84 634.232Z" fill="#061C26"/>
<path d="M1417.78 907.667C1496.38 907.667 1560.1 843.946 1560.1 765.343C1560.1 686.739 1496.38 623.019 1417.78 623.019C1339.17 623.019 1275.45 686.739 1275.45 765.343C1275.45 843.946 1339.17 907.667 1417.78 907.667Z" fill="#FFF6E1"/>
<path d="M1430.99 854.184C1476.48 854.184 1513.36 817.304 1513.36 771.809C1513.36 726.315 1476.48 689.435 1430.99 689.435C1385.49 689.435 1348.61 726.315 1348.61 771.809C1348.61 817.304 1385.49 854.184 1430.99 854.184Z" fill="#C92B17"/>
<path d="M1457.47 776.122C1459.85 761.522 1449.94 747.757 1435.34 745.377C1420.74 742.997 1406.98 752.903 1404.6 767.503C1402.22 782.102 1412.13 795.867 1426.73 798.247C1441.33 800.627 1455.09 790.721 1457.47 776.122Z" fill="#061C26"/>
<path d="M1478.23 740.34C1491.87 734.632 1498.31 718.942 1492.6 705.295C1486.89 691.648 1471.2 685.212 1457.56 690.92C1443.91 696.628 1437.47 712.319 1443.18 725.966C1448.89 739.613 1464.58 746.048 1478.23 740.34Z" fill="#FFF6E1"/>
<path d="M2535.82 414.123C2549.89 352.939 2511.71 291.929 2450.52 277.853C2389.34 263.776 2328.33 301.964 2314.25 363.148C2300.17 424.332 2338.36 485.342 2399.55 499.418C2460.73 513.494 2521.74 475.306 2535.82 414.123Z" fill="#FFF6E1"/>
<path d="M2431.29 460.767C2456.97 435.08 2456.97 393.432 2431.29 367.744C2405.6 342.057 2363.95 342.057 2338.26 367.744C2312.58 393.432 2312.58 435.08 2338.26 460.767C2363.95 486.455 2405.6 486.455 2431.29 460.767Z" fill="#ED7121"/>
<path d="M2399.91 429.387C2408.26 421.03 2408.26 407.482 2399.91 399.125C2391.55 390.768 2378 390.768 2369.64 399.125C2361.29 407.481 2361.29 421.03 2369.64 429.387C2378 437.743 2391.55 437.743 2399.91 429.387Z" fill="#061C26"/>
<path d="M2434.87 374.813C2437.88 363.384 2431.05 351.681 2419.62 348.675C2408.19 345.668 2396.49 352.496 2393.48 363.926C2390.47 375.355 2397.3 387.057 2408.73 390.064C2420.16 393.07 2431.86 386.243 2434.87 374.813Z" fill="#FFF6E1"/>
<path d="M2383.97 444.712C2387.72 428.92 2377.96 413.075 2362.17 409.322C2346.38 405.569 2330.53 415.329 2326.78 431.122C2323.03 446.914 2332.79 462.759 2348.58 466.512C2364.37 470.265 2380.22 460.505 2383.97 444.712Z" fill="#FFF6E1"/>
<path d="M2102.89 376.394H1812.25C1792.85 376.394 1777.92 359.242 1780.58 340.036L1791.93 258.216C1796.04 228.603 1822.43 207.259 1852.24 209.48L2128.9 230.018C2145.58 231.267 2158.51 245.172 2158.51 261.908V320.83C2158.48 351.499 2133.59 376.394 2102.89 376.394Z" fill="#061C26"/>
<path d="M1979.69 314.779C1945.19 314.779 1924.01 299.93 1912.3 287.469C1899.59 273.952 1895.12 260.519 1894.96 259.964C1894.37 258.132 1895.37 256.19 1897.18 255.579C1899.01 254.996 1900.95 255.968 1901.56 257.799C1901.62 257.994 1905.86 270.566 1917.58 282.945C1933.23 299.459 1954.13 307.84 1979.69 307.84C2011.8 307.84 2031.12 295.934 2041.66 285.97C2052.99 275.257 2056.82 264.627 2056.85 264.516C2057.48 262.712 2059.46 261.768 2061.26 262.407C2063.06 263.045 2064.01 265.015 2063.37 266.819C2063.2 267.319 2058.93 279.17 2046.41 291.021C2034.95 301.845 2014.08 314.779 1979.69 314.779Z" fill="#FFF6E1"/>
<path d="M1872.06 299.708C1871.73 299.708 1871.39 299.653 1871.06 299.57C1869.23 299.015 1868.17 297.1 1868.73 295.268C1871.56 285.693 1876.69 279.059 1883.94 275.562C1896.23 269.651 1909.97 275.09 1910.53 275.34C1912.3 276.062 1913.16 278.088 1912.44 279.864C1911.72 281.64 1909.69 282.501 1907.92 281.779C1907.72 281.696 1896.34 277.255 1886.88 281.835C1881.47 284.444 1877.58 289.634 1875.33 297.238C1874.95 298.709 1873.56 299.708 1872.06 299.708Z" fill="#FFF6E1"/>
<path d="M1911.64 325.076C1911.39 325.076 1911.16 325.049 1910.92 324.993C1909.03 324.605 1907.83 322.745 1908.25 320.886C1910.33 311.088 1914.75 304.4 1921.35 301.014C1931.59 295.796 1943.03 300.764 1943.5 300.958C1945.25 301.735 1946.05 303.789 1945.28 305.537C1944.5 307.286 1942.44 308.063 1940.7 307.314C1940.53 307.258 1931.68 303.484 1924.46 307.203C1919.82 309.59 1916.63 314.669 1915.02 322.301C1914.66 323.966 1913.25 325.076 1911.64 325.076Z" fill="#FFF6E1"/>
<path d="M1969.5 338.482C1968.34 338.482 1967.17 337.871 1966.53 336.789C1959.37 324.882 1964.9 313.225 1968.81 308.729C1970.06 307.286 1972.25 307.12 1973.7 308.396C1975.14 309.645 1975.31 311.838 1974.06 313.281C1973.72 313.67 1966.2 322.717 1972.5 333.236C1973.5 334.874 1972.95 337.011 1971.31 338.01C1970.73 338.315 1970.12 338.482 1969.5 338.482Z" fill="#FFF6E1"/>
<path d="M2024.73 326.492C2022.82 326.492 2021.27 324.938 2021.27 323.023C2021.27 312.893 2011.83 310.617 2010.75 310.367C2008.89 309.978 2007.67 308.147 2008.05 306.287C2008.44 304.428 2010.25 303.206 2012.13 303.567C2017.69 304.677 2028.2 310.173 2028.2 323.023C2028.2 324.938 2026.65 326.492 2024.73 326.492Z" fill="#FFF6E1"/>
<path d="M2065.67 305.565C2064.12 305.565 2062.7 304.51 2062.31 302.928C2060.7 296.323 2058.01 291.938 2054.54 290.245C2050.82 288.441 2047.16 290.106 2046.99 290.161C2045.27 290.994 2043.22 290.273 2042.39 288.524C2041.55 286.803 2042.3 284.722 2044.02 283.889C2044.3 283.75 2050.71 280.753 2057.46 283.917C2062.98 286.526 2066.89 292.382 2069.06 301.263C2069.5 303.123 2068.36 305.01 2066.5 305.454C2066.23 305.537 2065.95 305.565 2065.67 305.565Z" fill="#FFF6E1"/>
<path d="M1399.49 173.705C1399.49 173.705 1482.75 78.646 1585.69 102.709C1688.66 126.772 1716.55 232.266 1716.55 232.266C1716.55 232.266 1549.33 312.171 1399.49 173.705Z" fill="#FFF6E1"/>
<path d="M1638.61 193.66C1648.53 152.377 1623.1 110.87 1581.82 100.951C1540.54 91.0329 1499.03 116.459 1489.11 157.742C1479.19 199.026 1504.62 240.533 1545.9 250.451C1587.19 260.37 1628.69 234.944 1638.61 193.66Z" fill="#061C26"/>
<path d="M1602.74 184.453C1607.57 163.026 1594.12 141.738 1572.69 136.906C1551.26 132.073 1529.97 145.526 1525.14 166.953C1520.31 188.381 1533.76 209.668 1555.19 214.501C1576.62 219.333 1597.91 205.88 1602.74 184.453Z" fill="#0971B7"/>
<path d="M1399.49 173.704C1435.46 131.934 1490.49 97.5186 1546.67 95.5203C1620.38 93.0501 1681.58 141.925 1708.61 208.397C1711.78 216.168 1714.61 224.106 1716.55 232.238C1712.53 220.387 1707.12 209.063 1701.06 198.128C1675 151.306 1633.73 115.698 1580.39 105.095C1538.56 96.4917 1495.68 107.899 1459.13 128.714C1437.45 141.037 1417.25 156.163 1399.49 173.704Z" fill="#061C26"/>
<path d="M1710.33 937.837C1710.33 937.837 1867.06 811.305 1923.74 900.063C1923.74 900.063 2001.62 822.628 2104.31 937.837H1710.33Z" fill="#C92B17"/>
<path d="M1763.98 937.836C1763.98 937.836 1798.31 1037.34 1915.22 1037.34C2032.12 1037.34 2068.17 937.836 2068.17 937.836H1763.98Z" fill="#061C26"/>
<path d="M1837.14 937.836C1837.14 937.836 1854.96 976.165 1915.66 976.165C1976.36 976.165 1995.06 937.836 1995.06 937.836H1837.14Z" fill="#FFF6E1"/>
<path d="M1268.46 269.79C1329.57 269.79 1379.11 220.247 1379.11 159.133C1379.11 98.0192 1329.57 48.4766 1268.46 48.4766C1207.34 48.4766 1157.8 98.0192 1157.8 159.133C1157.8 220.247 1207.34 269.79 1268.46 269.79Z" fill="#FFF6E1"/>
<path d="M1278.7 228.186C1314.06 228.186 1342.73 199.52 1342.73 164.157C1342.73 128.795 1314.06 100.128 1278.7 100.128C1243.34 100.128 1214.67 128.795 1214.67 164.157C1214.67 199.52 1243.34 228.186 1278.7 228.186Z" fill="#C92B17"/>
<path d="M1278.7 184.972C1290.19 184.972 1299.51 175.653 1299.51 164.157C1299.51 152.66 1290.19 143.341 1278.7 143.341C1267.2 143.341 1257.88 152.66 1257.88 164.157C1257.88 175.653 1267.2 184.972 1278.7 184.972Z" fill="#061C26"/>
<path d="M1307.37 141.315C1318.86 141.315 1328.18 131.996 1328.18 120.499C1328.18 109.003 1318.86 99.6836 1307.37 99.6836C1295.87 99.6836 1286.55 109.003 1286.55 120.499C1286.55 131.996 1295.87 141.315 1307.37 141.315Z" stroke="#1D1D1B" stroke-width="0.5" stroke-linecap="round" stroke-linejoin="round"/>
<path d="M1379.09 159.133C1379.09 168.042 1378.03 176.702 1376.06 184.972C1296.79 187.692 1224.91 127.798 1185 86.4722C1205.29 63.1864 1235.15 48.4766 1268.46 48.4766C1329.57 48.5043 1379.09 98.018 1379.09 159.133Z" fill="#35A6DE"/>
<path d="M1376.06 184.973C1357.55 186.999 1338.73 184.945 1320.77 180.088C1266.82 164.962 1220.69 128.742 1185.03 86.4727C1238.98 134.266 1301.29 181.531 1376.06 184.973Z" fill="#061C26"/>
<path d="M1734.42 195.27C1732.76 195.27 1731.29 194.049 1731.01 192.355C1730.96 192.022 1726.29 164.629 1706.09 135.237C1687.49 108.149 1651.49 73.7335 1585.55 63.4644C1519.55 53.1953 1475.89 71.4577 1450.89 88.6098C1423.77 107.205 1412.03 128.548 1411.92 128.743C1411 130.436 1408.89 131.046 1407.23 130.158C1405.54 129.242 1404.9 127.161 1405.81 125.468C1406.31 124.552 1418.27 102.654 1446.64 83.1145C1463.26 71.652 1482.11 63.4089 1502.62 58.5797C1528.18 52.5847 1556.44 51.9186 1586.6 56.6091C1616.83 61.3273 1643.58 71.2911 1666.15 86.3062C1684.22 98.3238 1699.65 113.561 1711.97 131.574C1732.95 162.27 1737.64 190.08 1737.84 191.245C1738.14 193.133 1736.87 194.909 1734.98 195.214C1734.81 195.242 1734.62 195.27 1734.42 195.27Z" fill="#061C26"/>
<path d="M1752.16 161.354C1733.09 161.354 1717.36 152.084 1716.55 151.584C1714.91 150.613 1714.39 148.476 1715.36 146.838C1716.33 145.201 1718.47 144.673 1720.1 145.645C1720.41 145.839 1743.36 159.244 1765.56 152.5C1778.39 148.587 1788.63 138.678 1796.04 123.025C1796.84 121.304 1798.93 120.555 1800.65 121.36C1802.37 122.192 1803.12 124.246 1802.31 125.967C1794.01 143.48 1782.33 154.637 1767.54 159.133C1762.35 160.715 1757.13 161.354 1752.16 161.354Z" fill="#061C26"/>
<path d="M1687.02 97.7965C1671.48 97.7965 1658.74 89.7477 1658.04 89.3037C1656.43 88.2768 1655.96 86.1119 1657.02 84.5022C1658.04 82.8924 1660.21 82.4206 1661.82 83.4475C1662.04 83.5863 1680.19 94.9656 1697.7 89.1649C1708.97 85.4458 1717.77 75.4265 1723.88 59.3845C1724.57 57.5805 1726.57 56.6923 1728.35 57.3862C1730.15 58.0801 1731.04 60.0784 1730.34 61.8546C1723.43 79.9782 1713.16 91.3852 1699.81 95.7704C1695.46 97.2414 1691.13 97.7965 1687.02 97.7965Z" fill="#061C26"/>
<path d="M1602.76 66.7113C1601.76 66.7113 1600.79 66.295 1600.09 65.4901C1598.87 64.0191 1599.04 61.8265 1600.51 60.6053C1600.62 60.4943 1605.95 55.8871 1609.83 48.1714C1614.97 37.9855 1615.33 27.3557 1610.94 16.587C1610.22 14.8107 1611.08 12.7846 1612.86 12.063C1614.64 11.3414 1616.66 12.2018 1617.38 13.9781C1623.88 29.9368 1620.16 43.2311 1615.91 51.5574C1611.33 60.4943 1605.25 65.6844 1605.01 65.9064C1604.34 66.4337 1603.53 66.7113 1602.76 66.7113Z" fill="#061C26"/>
<path d="M1520.41 62.2983C1520.02 62.2983 1519.61 62.2428 1519.22 62.0763C1518.91 61.9653 1511.95 59.3563 1505.51 53.1394C1499.46 47.311 1492.74 37.0974 1495.15 21.6105C1495.46 19.7232 1497.24 18.4187 1499.12 18.724C1501.01 19.0293 1502.32 20.8056 1502.01 22.6929C1498.29 46.6171 1520.66 55.221 1521.63 55.5818C1523.44 56.2479 1524.35 58.2462 1523.69 60.0502C1523.16 61.4102 1521.83 62.2983 1520.41 62.2983Z" fill="#061C26"/>
<path d="M1438.31 92.7448C1433.73 92.7448 1427.77 91.7734 1422.08 87.9155C1412.64 81.532 1407.12 69.4034 1405.65 51.8627C1405.48 49.9476 1406.9 48.2824 1408.81 48.1158C1410.73 47.9493 1412.39 49.3648 1412.56 51.2798C1413.86 66.628 1418.39 77.0081 1425.99 82.1704C1434.48 87.9433 1444.06 85.1401 1444.14 85.1124C1445.97 84.5573 1447.92 85.5842 1448.47 87.416C1449.03 89.2477 1448 91.1906 1446.17 91.7456C1445.89 91.8289 1442.75 92.7448 1438.31 92.7448Z" fill="#061C26"/>
</g>
</g>
<defs>
<clipPath id="clip0_1_447">
<rect width="2400" height="997" fill="white"/>
</clipPath>
<clipPath id="clip1_1_447">
<rect width="2843.85" height="2958" fill="white" transform="translate(494 -111)"/>
</clipPath>
</defs>
</svg>
