<svg width="519" height="270" viewBox="0 0 519 270" fill="none" xmlns="http://www.w3.org/2000/svg">
<g clip-path="url(#clip0_28_2)">
<path d="M41.7699 134.81L34.4199 84.5198L128.38 1.33984L163.71 5.25984L256.85 53.1698L353.94 92.1898L440.5 110.6L446.94 172.98L385.37 218.34L323.63 212.65L313.83 156.17L251.66 146.77L209.07 165.72L202.99 201.02L122.46 205.12L69.0399 190.07L62.7799 135.14L41.7699 134.81Z" fill="#48245F"/>
<path d="M90.46 131.72L90.3 100.6L77.63 121.85H55.51L43.08 101.57V131.72H0V14.6797H36.52L66.87 64.5297L96.49 14.6797H133.04L133.38 131.72H90.46Z" fill="#482666"/>
<path d="M136.49 131.72V14.6797H231.93V53.4597H225.92V91.5197H181.43V92.9297H233.79V131.72H136.49Z" fill="#482666"/>
<path d="M276.27 133.72C258.35 133.72 240.33 128.92 229.23 121.19L223.5 117.2L239.7 80.8199L248.02 86.3199C255.8 91.4699 266.94 94.7899 276.41 94.7899C277.62 94.7899 278.67 94.7499 279.58 94.6799C276.89 93.9299 273.73 93.2199 271.23 92.6599C254.81 88.9899 227.33 82.8599 227.33 53.5899C227.33 34.7099 241.16 12.6699 280.13 12.6699C295.1 12.6699 309.89 16.2699 320.71 22.5399L327.11 26.2499L311.97 62.7399L303.75 58.3199C295.57 53.9199 287.35 51.5999 279.99 51.5999C278.2 51.5999 276.77 51.7099 275.64 51.8699C278.48 52.6999 282.13 53.4899 284.93 54.0999C301.44 57.6799 329.07 63.6799 329.07 92.9399C329.07 104.51 324.03 114.92 314.89 122.25C305.52 129.76 292.16 133.73 276.27 133.73V133.72Z" fill="#482666"/>
<path d="M98.8692 110.6L98.5792 57.5202L72.8292 100.73H60.2392L34.6292 58.9502V110.6H8.44922V10.4502H31.7692L66.9592 68.2502L101.299 10.4502H124.619L124.909 110.6H98.8692Z" fill="white"/>
<path d="M225.339 88.7102V110.6H144.939V10.4502H223.479V32.3402H172.979V49.2202H217.469V70.3902H172.979V88.7002H225.339V88.7102Z" fill="white"/>
<path d="M234.068 101.58L243.368 80.6904C252.238 86.5604 264.828 90.5604 276.418 90.5604C288.008 90.5604 292.728 87.2704 292.728 82.4104C292.728 66.5304 235.788 78.1204 235.788 40.9204C235.788 23.0404 250.378 8.44043 280.138 8.44043C293.158 8.44043 306.608 11.4404 316.478 17.1704L307.748 38.2004C298.158 33.0504 288.718 30.4704 279.998 30.4704C268.128 30.4704 263.828 34.4804 263.828 39.4804C263.828 54.7904 320.628 43.3404 320.628 80.2504C320.628 97.7004 306.038 112.58 276.278 112.58C259.828 112.58 243.518 108.15 234.078 101.56L234.068 101.58Z" fill="white"/>
<path d="M90.46 119.05L90.3 87.92L77.63 109.18H55.51L43.08 88.9V119.05H0V2H36.52L66.87 51.86L96.49 2H133.04L133.38 119.05H90.46Z" fill="#482666"/>
<path d="M136.49 119.05V2H231.93V40.79H225.92V78.85H181.43V80.26H233.79V119.05H136.49Z" fill="#482666"/>
<path d="M276.27 121.05C258.35 121.05 240.33 116.25 229.23 108.52L223.5 104.53L239.7 68.15L248.02 73.65C255.8 78.8 266.94 82.12 276.41 82.12C277.62 82.12 278.67 82.08 279.58 82.01C276.89 81.26 273.73 80.55 271.23 79.99C254.81 76.32 227.33 70.19 227.33 40.92C227.33 22.04 241.16 0 280.13 0C295.1 0 309.89 3.6 320.71 9.87L327.11 13.58L311.97 50.07L303.75 45.65C295.57 41.25 287.35 38.93 279.99 38.93C278.2 38.93 276.77 39.04 275.64 39.2C278.48 40.03 282.13 40.82 284.93 41.43C301.44 45.01 329.07 51.01 329.07 80.27C329.07 91.84 324.03 102.25 314.89 109.58C305.52 117.09 292.16 121.06 276.27 121.06V121.05Z" fill="#482666"/>
<path d="M98.8692 110.6L98.5792 57.5202L72.8292 100.73H60.2392L34.6292 58.9502V110.6H8.44922V10.4502H31.7692L66.9592 68.2502L101.299 10.4502H124.619L124.909 110.6H98.8692Z" fill="#FCC207"/>
<path d="M225.339 88.7102V110.6H144.939V10.4502H223.479V32.3402H172.979V49.2202H217.469V70.3902H172.979V88.7002H225.339V88.7102Z" fill="#FCC207"/>
<path d="M234.068 101.58L243.368 80.6904C252.238 86.5604 264.828 90.5604 276.418 90.5604C288.008 90.5604 292.728 87.2704 292.728 82.4104C292.728 66.5304 235.788 78.1204 235.788 40.9204C235.788 23.0404 250.378 8.44043 280.138 8.44043C293.158 8.44043 306.608 11.4404 316.478 17.1704L307.748 38.2004C298.158 33.0504 288.718 30.4704 279.998 30.4704C268.128 30.4704 263.828 34.4804 263.828 39.4804C263.828 54.7904 320.628 43.3404 320.628 80.2504C320.628 97.7004 306.038 112.58 276.278 112.58C259.828 112.58 243.518 108.15 234.078 101.56L234.068 101.58Z" fill="#FCC207"/>
<path d="M321.949 130.84V68.5801H351.809C371.759 68.5801 385.689 81.3801 385.689 99.7101C385.689 118.04 371.759 130.84 351.809 130.84H321.949ZM351.269 104.92C356.269 104.92 356.949 102.29 356.949 99.7101C356.949 97.1301 356.279 94.5001 351.269 94.5001H350.549V104.92H351.269Z" fill="#482666"/>
<path d="M377.33 130.84V68.5801H429.47V94.1701H426.66V105.25H430.34V130.84H377.33Z" fill="#482666"/>
<path d="M422.389 130.84V68.5801H450.999V104.99H473.389V130.84H422.389Z" fill="#482666"/>
<path d="M329.619 64.75H351.809C367.369 64.75 378.029 73.8 378.029 88.22C378.029 102.64 367.369 111.69 351.809 111.69H329.619V64.76V64.75ZM351.269 101.09C359.249 101.09 364.609 96.33 364.609 88.22C364.609 80.11 359.249 75.35 351.269 75.35H342.889V101.1H351.269V101.09Z" fill="white"/>
<path d="M422.68 101.42V111.68H385V64.75H421.81V75.01H398.14V82.92H418.99V92.84H398.14V101.42H422.68Z" fill="white"/>
<path d="M430.059 64.75H443.339V101.16H465.729V111.69H430.059V64.76V64.75Z" fill="white"/>
<path d="M321.949 119.35V57.0898H351.809C371.759 57.0898 385.689 69.8898 385.689 88.2198C385.689 106.55 371.759 119.35 351.809 119.35H321.949ZM351.269 93.4198C356.269 93.4198 356.949 90.7898 356.949 88.2098C356.949 85.6298 356.279 82.9998 351.269 82.9998H350.549V93.4198H351.269Z" fill="#482666"/>
<path d="M377.33 119.35V57.0801H429.47V82.6701H426.66V93.7601H430.34V119.35H377.33Z" fill="#482666"/>
<path d="M422.389 119.35V57.0801H450.999V93.4901H473.389V119.35H422.389Z" fill="#482666"/>
<path d="M329.619 64.75H351.809C367.369 64.75 378.029 73.8 378.029 88.22C378.029 102.64 367.369 111.69 351.809 111.69H329.619V64.76V64.75ZM351.269 101.09C359.249 101.09 364.609 96.33 364.609 88.22C364.609 80.11 359.249 75.35 351.269 75.35H342.889V101.1H351.269V101.09Z" fill="#FCC207"/>
<path d="M422.68 101.42V111.68H385V64.75H421.81V75.01H398.14V82.92H418.99V92.84H398.14V101.42H422.68Z" fill="#FCC207"/>
<path d="M430.059 64.75H443.339V101.16H465.729V111.69H430.059V64.76V64.75Z" fill="#FCC207"/>
<path d="M100.921 235.7L93.8509 218.23H66.1609L59.0909 235.7H16.2109L62.6809 130.43H97.7209L144.341 235.7H100.931H100.921ZM80.2309 184.14L80.0109 183.58L79.7909 184.14H80.2409H80.2309Z" fill="#482666"/>
<path d="M183.302 237.5C150.202 237.5 126.172 214.61 126.172 183.07C126.172 151.53 150.202 128.64 183.302 128.64C202.132 128.64 217.582 135.5 227.962 148.48L232.472 154.11L205.002 178.96L199.892 172.81C195.492 167.51 190.632 165.04 184.592 165.04C173.862 165.04 167.202 171.95 167.202 183.07C167.202 194.19 173.862 201.1 184.592 201.1C190.632 201.1 195.492 198.63 199.892 193.33L205.002 187.18L232.472 212.03L227.962 217.66C217.582 230.64 202.142 237.5 183.302 237.5Z" fill="#482666"/>
<path d="M243.991 235.699V165.939H216.371V130.439H312.251V165.939H284.761V235.699H243.991Z" fill="#482666"/>
<path d="M358.161 237.5C325.301 237.5 300.521 214.1 300.521 183.07C300.521 152.04 325.301 128.64 358.161 128.64C391.021 128.64 415.801 152.04 415.801 183.07C415.801 214.1 391.021 237.5 358.161 237.5ZM358.161 165.04C348.222 165.04 341.542 172.29 341.542 183.07C341.542 193.85 348.222 201.1 358.161 201.1C368.102 201.1 374.781 193.85 374.781 183.07C374.781 172.29 368.102 165.04 358.161 165.04Z" fill="#482666"/>
<path d="M473.092 235.7L456.772 211.8H454.612V235.7H413.842V130.43H462.622C491.552 130.43 510.242 146.5 510.242 171.37C510.242 184.2 505.192 194.83 495.842 202.04L518.942 235.69H473.102L473.092 235.7ZM461.072 176.82C469.212 176.82 469.212 173.55 469.212 171.38C469.212 169.03 469.212 165.81 461.072 165.81H454.602V176.82H461.072Z" fill="#482666"/>
<path d="M99.0207 199.07H60.9907L53.9207 216.54H27.9707L67.6707 126.6H92.7207L132.551 216.54H106.081L99.0107 199.07H99.0207ZM91.5707 180.31L80.0107 151.53L68.4507 180.31H91.5807H91.5707Z" fill="white"/>
<path d="M133.84 171.57C133.84 144.2 154.78 124.8 183.3 124.8C199.87 124.8 213.24 130.84 221.97 141.76L205.78 156.41C200.13 149.6 193.19 145.87 184.58 145.87C169.8 145.87 159.53 156.15 159.53 171.57C159.53 186.99 169.81 197.27 184.58 197.27C193.19 197.27 200.13 193.54 205.78 186.73L221.97 201.38C213.23 212.3 199.87 218.34 183.3 218.34C154.78 218.34 133.84 198.94 133.84 171.57Z" fill="white"/>
<path d="M251.651 146.779H224.031V126.609H304.591V146.779H277.101V216.539H251.661V146.779H251.651Z" fill="white"/>
<path d="M308.182 171.57C308.182 144.59 329.382 124.8 358.162 124.8C386.942 124.8 408.142 144.59 408.142 171.57C408.142 198.55 386.942 218.34 358.162 218.34C329.382 218.34 308.182 198.55 308.182 171.57ZM382.452 171.57C382.452 156.02 371.792 145.87 358.172 145.87C344.552 145.87 333.892 156.02 333.892 171.57C333.892 187.12 344.552 197.27 358.172 197.27C371.792 197.27 382.452 187.12 382.452 171.57Z" fill="white"/>
<path d="M460.82 192.64H446.94V216.54H421.5V126.6H462.61C487.15 126.6 502.57 139.32 502.57 159.88C502.57 173.11 496.15 182.88 484.97 188.27L504.37 216.54H477.13L460.81 192.64H460.82ZM461.07 146.65H446.94V172.99H461.07C471.61 172.99 476.87 168.11 476.87 159.89C476.87 151.67 471.6 146.66 461.07 146.66V146.65Z" fill="white"/>
<path d="M100.921 224.2L93.8509 206.73H66.1609L59.0909 224.2H16.2109L62.6809 118.93H97.7209L144.341 224.2H100.931H100.921ZM80.2309 172.64L80.0109 172.08L79.7909 172.64H80.2409H80.2309Z" fill="#48245F"/>
<path d="M183.302 226C150.202 226 126.172 203.11 126.172 171.57C126.172 140.03 150.202 117.14 183.302 117.14C202.132 117.14 217.582 124 227.962 136.98L232.472 142.61L205.002 167.46L199.892 161.31C195.492 156.01 190.632 153.54 184.592 153.54C173.862 153.54 167.202 160.45 167.202 171.57C167.202 182.69 173.862 189.6 184.592 189.6C190.632 189.6 195.492 187.13 199.892 181.83L205.002 175.68L232.472 200.53L227.962 206.16C217.582 219.14 202.142 226 183.302 226Z" fill="#48245F"/>
<path d="M243.991 224.199V154.439H216.371V118.939H312.251V154.439H284.761V224.199H243.991Z" fill="#48245F"/>
<path d="M358.161 226C325.301 226 300.521 202.6 300.521 171.57C300.521 140.54 325.301 117.14 358.161 117.14C391.021 117.14 415.801 140.54 415.801 171.57C415.801 202.6 391.021 226 358.161 226ZM358.161 153.54C348.222 153.54 341.542 160.79 341.542 171.57C341.542 182.35 348.222 189.6 358.161 189.6C368.102 189.6 374.781 182.35 374.781 171.57C374.781 160.79 368.102 153.54 358.161 153.54Z" fill="#48245F"/>
<path d="M473.092 224.2L456.772 200.3H454.612V224.2H413.842V118.93H462.622C491.552 118.93 510.242 135 510.242 159.87C510.242 172.7 505.192 183.33 495.842 190.54L518.942 224.19H473.102L473.092 224.2ZM461.072 165.32C469.212 165.32 469.212 162.05 469.212 159.88C469.212 157.53 469.212 154.31 461.072 154.31H454.602V165.32H461.072Z" fill="#48245F"/>
<path d="M99.0207 199.07H60.9907L53.9207 216.54H27.9707L67.6707 126.6H92.7207L132.551 216.54H106.081L99.0107 199.07H99.0207ZM91.5707 180.31L80.0107 151.53L68.4507 180.31H91.5807H91.5707Z" fill="#FCC207"/>
<path d="M133.84 171.57C133.84 144.2 154.78 124.8 183.3 124.8C199.87 124.8 213.24 130.84 221.97 141.76L205.78 156.41C200.13 149.6 193.19 145.87 184.58 145.87C169.8 145.87 159.53 156.15 159.53 171.57C159.53 186.99 169.81 197.27 184.58 197.27C193.19 197.27 200.13 193.54 205.78 186.73L221.97 201.38C213.23 212.3 199.87 218.34 183.3 218.34C154.78 218.34 133.84 198.94 133.84 171.57Z" fill="#FCC207"/>
<path d="M251.651 146.779H224.031V126.609H304.591V146.779H277.101V216.539H251.661V146.779H251.651Z" fill="#FCC207"/>
<path d="M308.182 171.57C308.182 144.59 329.382 124.8 358.162 124.8C386.942 124.8 408.142 144.59 408.142 171.57C408.142 198.55 386.942 218.34 358.162 218.34C329.382 218.34 308.182 198.55 308.182 171.57ZM382.452 171.57C382.452 156.02 371.792 145.87 358.172 145.87C344.552 145.87 333.892 156.02 333.892 171.57C333.892 187.12 344.552 197.27 358.172 197.27C371.792 197.27 382.452 187.12 382.452 171.57Z" fill="#FCC207"/>
<path d="M460.82 192.64H446.94V216.54H421.5V126.6H462.61C487.15 126.6 502.57 139.32 502.57 159.88C502.57 173.11 496.15 182.88 484.97 188.27L504.37 216.54H477.13L460.81 192.64H460.82ZM461.07 146.65H446.94V172.99H461.07C471.61 172.99 476.87 168.11 476.87 159.89C476.87 151.67 471.6 146.66 461.07 146.66V146.65Z" fill="#FCC207"/>
<path d="M50.2402 268.47V246.39H44.9902V235.94H62.5102V268.47H50.2402Z" fill="#482666"/>
<path d="M77.0807 269.03C68.3407 269.03 62.4707 262.27 62.4707 252.2C62.4707 242.13 68.3407 235.37 77.0807 235.37C85.8207 235.37 91.6507 242.13 91.6507 252.2C91.6507 262.27 85.8007 269.03 77.0807 269.03ZM77.0807 246.19C75.0807 246.19 74.7807 249.96 74.7807 252.2C74.7807 254.44 75.0807 258.21 77.0807 258.21C79.0807 258.21 79.3407 254 79.3407 252.2C79.3407 250.4 79.1207 246.19 77.0807 246.19Z" fill="#482666"/>
<path d="M125.159 268.47L122.939 262.98H113.879L111.659 268.47H98.7793L113.139 235.94H123.799L138.199 268.47H125.159ZM118.879 252.81L118.409 251.64L117.939 252.81H118.879Z" fill="#482666"/>
<path d="M135.041 268.47V235.94H147.301V257.86H160.781V268.47H135.041Z" fill="#482666"/>
<path d="M181.531 269.03C177.061 269.03 172.531 267.87 169.421 265.92L167.791 264.9L172.611 254.93L174.661 256.32C176.481 257.55 178.961 258.29 181.291 258.29C182.451 258.29 183.631 258.01 183.631 257.48C183.631 257.33 183.611 257.28 183.611 257.28C183.611 257.28 183.211 256.88 181.451 256.88H175.961V248.86L178.251 246.39H169.871V235.94H194.571V243.92L190.381 248.43C193.941 250.21 195.991 253.43 195.991 257.49C195.991 263.24 191.521 269.03 181.541 269.03H181.531Z" fill="#482666"/>
<path d="M208.889 269.03C200.149 269.03 194.279 262.27 194.279 252.2C194.279 242.13 200.149 235.37 208.889 235.37C217.629 235.37 223.459 242.13 223.459 252.2C223.459 262.27 217.609 269.03 208.889 269.03ZM208.889 246.19C206.889 246.19 206.589 249.96 206.589 252.2C206.589 254.44 206.889 258.21 208.889 258.21C210.889 258.21 211.149 254 211.149 252.2C211.149 250.4 210.929 246.19 208.889 246.19Z" fill="#482666"/>
<path d="M235.131 268.47V235.94H250.631C261.351 235.94 268.551 242.48 268.551 252.2C268.551 261.92 261.351 268.46 250.631 268.46H235.131V268.47ZM250.301 257.82C254.051 257.82 256.191 255.77 256.191 252.21C256.191 248.65 254.041 246.6 250.301 246.6H247.391V257.82H250.301Z" fill="#482666"/>
<path d="M268.471 268.47V235.94H294.901V246.39H280.651V246.88H293.201V257.13H280.651V258.02H295.421V268.47H268.471Z" fill="#482666"/>
<path d="M329.181 268.47L326.961 262.98H317.901L315.681 268.47H302.801L317.161 235.94H327.821L342.221 268.47H329.181ZM322.891 252.81L322.421 251.64L321.951 252.81H322.891Z" fill="#482666"/>
<path d="M354.921 269.03C344.651 269.03 337.201 261.95 337.201 252.2C337.201 242.45 344.721 235.37 355.081 235.37C361.011 235.37 365.851 237.42 369.071 241.31L370.381 242.89L363.121 249.46H368.921V264.4L368.031 265.04C364.541 267.54 359.641 269.03 354.921 269.03ZM355.481 246.27C351.821 246.27 349.551 248.54 349.551 252.2C349.551 255.86 351.851 258.13 355.401 258.13C356.171 258.13 356.891 258.04 357.581 257.85V249.45H361.431L360.761 248.7C359.231 247.01 357.601 246.25 355.481 246.25V246.27Z" fill="#482666"/>
<path d="M386.11 269.03C375.94 269.03 368.27 261.8 368.27 252.2C368.27 242.6 375.94 235.37 386.11 235.37C396.28 235.37 403.95 242.6 403.95 252.2C403.95 261.8 396.28 269.03 386.11 269.03ZM386.11 246.27C382.83 246.27 380.62 248.65 380.62 252.2C380.62 255.75 382.83 258.13 386.11 258.13C389.39 258.13 391.6 255.75 391.6 252.2C391.6 248.65 389.39 246.27 386.11 246.27Z" fill="#482666"/>
<path d="M415.939 269.03C410.929 269.03 405.899 267.69 402.809 265.54L401.359 264.53L405.729 254.72L407.839 256.11C410.069 257.59 413.269 258.54 415.979 258.54C416.939 258.54 417.559 258.45 417.949 258.36C417.099 258.03 415.629 257.7 414.569 257.46C410.009 256.44 402.379 254.74 402.379 246.68C402.379 241.47 406.219 235.38 417.029 235.38C421.209 235.38 425.339 236.38 428.349 238.13L429.969 239.07L425.879 248.91L423.799 247.79C421.459 246.53 419.099 245.86 416.979 245.86C415.849 245.86 415.209 246.01 414.869 246.14C415.669 246.48 417.219 246.81 418.329 247.05C422.909 248.04 430.589 249.71 430.589 257.77C430.589 263.37 426.059 269.03 415.939 269.03Z" fill="#482666"/>
<path d="M435.6 268.47V246.55H426.92V235.94H456.5V246.55H447.86V268.47H435.6Z" fill="#482666"/>
<path d="M471.19 269.03C461.02 269.03 453.35 261.8 453.35 252.2C453.35 242.6 461.02 235.37 471.19 235.37C481.36 235.37 489.03 242.6 489.03 252.2C489.03 261.8 481.36 269.03 471.19 269.03ZM471.19 246.27C467.91 246.27 465.7 248.65 465.7 252.2C465.7 255.75 467.91 258.13 471.19 258.13C474.47 258.13 476.68 255.75 476.68 252.2C476.68 248.65 474.47 246.27 471.19 246.27Z" fill="#482666"/>
<path d="M60.3709 234.869V263.119H52.3809V241.039H47.1309V234.859H60.3709V234.869Z" fill="white"/>
<path d="M64.6113 249C64.6113 239.68 69.8613 234.31 77.0813 234.31C84.3013 234.31 89.5113 239.68 89.5113 249C89.5113 258.32 84.2613 263.69 77.0813 263.69C69.9013 263.69 64.6113 258.32 64.6113 249ZM81.4813 249C81.4813 243.07 79.6213 240.85 77.0813 240.85C74.5413 240.85 72.6413 243.07 72.6413 249C72.6413 254.93 74.5013 257.15 77.0813 257.15C79.6613 257.15 81.4813 254.93 81.4813 249Z" fill="white"/>
<path d="M124.381 257.63H112.431L110.211 263.12H102.061L114.531 234.87H122.401L134.911 263.12H126.601L124.381 257.63ZM122.041 251.74L118.411 242.7L114.781 251.74H122.041Z" fill="white"/>
<path d="M137.17 234.87H145.16V256.79H158.64V263.13H137.17V234.88V234.87Z" fill="white"/>
<path d="M193.841 254.29C193.841 259.09 190.051 263.69 181.531 263.69C177.611 263.69 173.461 262.72 170.551 260.9L173.461 254.89C175.721 256.42 178.631 257.23 181.291 257.23C183.951 257.23 185.771 256.18 185.771 254.28C185.771 252.58 184.521 251.54 181.451 251.54H178.101V246.5L183.141 241.05H172.001V234.87H192.421V239.87L186.571 246.17C191.331 247.18 193.831 250.25 193.831 254.28L193.841 254.29Z" fill="white"/>
<path d="M196.42 249C196.42 239.68 201.67 234.31 208.89 234.31C216.11 234.31 221.32 239.68 221.32 249C221.32 258.32 216.07 263.69 208.89 263.69C201.71 263.69 196.42 258.32 196.42 249ZM213.29 249C213.29 243.07 211.43 240.85 208.89 240.85C206.35 240.85 204.45 243.07 204.45 249C204.45 254.93 206.31 257.15 208.89 257.15C211.47 257.15 213.29 254.93 213.29 249Z" fill="white"/>
<path d="M237.271 234.87H250.631C259.991 234.87 266.411 240.32 266.411 249C266.411 257.68 259.991 263.13 250.631 263.13H237.271V234.88V234.87ZM250.301 256.75C255.101 256.75 258.331 253.88 258.331 249C258.331 244.12 255.101 241.25 250.301 241.25H245.261V256.75H250.301Z" fill="white"/>
<path d="M293.291 256.95V263.12H270.611V234.87H292.771V241.05H278.521V245.81H291.071V251.78H278.521V256.95H293.291Z" fill="white"/>
<path d="M328.4 257.63H316.45L314.23 263.12H306.08L318.55 234.87H326.42L338.93 263.12H330.62L328.4 257.63ZM326.06 251.74L322.43 242.7L318.8 251.74H326.06Z" fill="white"/>
<path d="M359.72 248.39H366.78V260.09C363.51 262.43 359.03 263.68 354.91 263.68C345.91 263.68 339.33 257.59 339.33 248.99C339.33 240.39 345.91 234.3 355.07 234.3C360.36 234.3 364.64 236.12 367.42 239.47L362.33 244.07C360.39 241.93 358.17 240.92 355.47 240.92C350.63 240.92 347.4 244.11 347.4 248.99C347.4 253.87 350.63 257.06 355.39 257.06C356.88 257.06 358.3 256.78 359.71 256.13V248.38L359.72 248.39Z" fill="white"/>
<path d="M370.41 249C370.41 240.52 377.07 234.31 386.11 234.31C395.15 234.31 401.81 240.52 401.81 249C401.81 257.48 395.15 263.69 386.11 263.69C377.07 263.69 370.41 257.47 370.41 249ZM393.74 249C393.74 244.12 390.39 240.93 386.11 240.93C381.83 240.93 378.48 244.12 378.48 249C378.48 253.88 381.83 257.07 386.11 257.07C390.39 257.07 393.74 253.88 393.74 249Z" fill="white"/>
<path d="M404.031 260.579L406.651 254.689C409.151 256.349 412.701 257.479 415.971 257.479C419.241 257.479 420.572 256.549 420.572 255.179C420.572 250.699 404.512 253.969 404.512 243.479C404.512 238.439 408.631 234.319 417.021 234.319C420.691 234.319 424.491 235.169 427.271 236.779L424.811 242.709C422.111 241.259 419.442 240.529 416.982 240.529C413.632 240.529 412.422 241.659 412.422 243.069C412.422 247.389 428.441 244.159 428.441 254.569C428.441 259.489 424.321 263.689 415.931 263.689C411.291 263.689 406.691 262.439 404.021 260.579H404.031Z" fill="white"/>
<path d="M437.741 241.21H429.061V234.87H454.371V241.21H445.731V263.13H437.741V241.21Z" fill="white"/>
<path d="M455.49 249C455.49 240.52 462.15 234.31 471.19 234.31C480.23 234.31 486.89 240.52 486.89 249C486.89 257.48 480.23 263.69 471.19 263.69C462.15 263.69 455.49 257.47 455.49 249ZM478.82 249C478.82 244.12 475.47 240.93 471.19 240.93C466.91 240.93 463.56 244.12 463.56 249C463.56 253.88 466.91 257.07 471.19 257.07C475.47 257.07 478.82 253.88 478.82 249Z" fill="white"/>
<path d="M50.2402 265.26V243.189H44.9902V232.729H62.5102V265.26H50.2402Z" fill="#482666"/>
<path d="M77.0807 265.83C68.3407 265.83 62.4707 259.07 62.4707 249C62.4707 238.93 68.3407 232.17 77.0807 232.17C85.8207 232.17 91.6507 238.93 91.6507 249C91.6507 259.07 85.8007 265.83 77.0807 265.83ZM77.0807 242.98C75.0807 242.98 74.7807 246.75 74.7807 248.99C74.7807 251.23 75.0807 255 77.0807 255C79.0807 255 79.3407 250.79 79.3407 248.99C79.3407 247.19 79.1207 242.98 77.0807 242.98Z" fill="#482666"/>
<path d="M125.159 265.26L122.939 259.769H113.879L111.659 265.26H98.7793L113.139 232.729H123.799L138.199 265.26H125.159ZM118.879 249.6L118.409 248.429L117.939 249.6H118.879Z" fill="#482666"/>
<path d="M135.041 265.26V232.729H147.301V254.649H160.781V265.26H135.041Z" fill="#482666"/>
<path d="M181.531 265.83C177.061 265.83 172.531 264.67 169.421 262.72L167.791 261.7L172.611 251.73L174.661 253.12C176.481 254.35 178.961 255.09 181.291 255.09C182.451 255.09 183.631 254.81 183.631 254.28C183.631 254.13 183.611 254.08 183.611 254.08C183.611 254.08 183.211 253.68 181.451 253.68H175.961V245.66L178.251 243.19H169.871V232.74H194.571V240.72L190.381 245.23C193.941 247.01 195.991 250.23 195.991 254.29C195.991 260.04 191.521 265.83 181.541 265.83H181.531Z" fill="#482666"/>
<path d="M208.889 265.83C200.149 265.83 194.279 259.07 194.279 249C194.279 238.93 200.149 232.17 208.889 232.17C217.629 232.17 223.459 238.93 223.459 249C223.459 259.07 217.609 265.83 208.889 265.83ZM208.889 242.98C206.889 242.98 206.589 246.75 206.589 248.99C206.589 251.23 206.889 255 208.889 255C210.889 255 211.149 250.79 211.149 248.99C211.149 247.19 210.929 242.98 208.889 242.98Z" fill="#482666"/>
<path d="M235.131 265.26V232.729H250.631C261.351 232.729 268.551 239.27 268.551 248.99C268.551 258.71 261.351 265.249 250.631 265.249H235.131V265.26ZM250.301 254.609C254.051 254.609 256.191 252.559 256.191 248.999C256.191 245.439 254.041 243.389 250.301 243.389H247.391V254.609H250.301Z" fill="#482666"/>
<path d="M268.471 265.26V232.729H294.901V243.189H280.651V243.669H293.201V253.919H280.651V254.809H295.421V265.26H268.471Z" fill="#482666"/>
<path d="M329.181 265.26L326.961 259.769H317.901L315.681 265.26H302.801L317.161 232.729H327.821L342.221 265.26H329.181ZM322.891 249.6L322.421 248.429L321.951 249.6H322.891Z" fill="#482666"/>
<path d="M354.921 265.83C344.651 265.83 337.201 258.75 337.201 249C337.201 239.25 344.721 232.17 355.081 232.17C361.011 232.17 365.851 234.22 369.071 238.11L370.381 239.69L363.121 246.26H368.921V261.2L368.031 261.84C364.541 264.34 359.641 265.83 354.921 265.83ZM355.481 243.06C351.821 243.06 349.551 245.33 349.551 248.99C349.551 252.65 351.851 254.92 355.401 254.92C356.171 254.92 356.891 254.83 357.581 254.64V246.24H361.431L360.761 245.49C359.231 243.8 357.601 243.04 355.481 243.04V243.06Z" fill="#482666"/>
<path d="M386.11 265.83C375.94 265.83 368.27 258.6 368.27 249C368.27 239.4 375.94 232.17 386.11 232.17C396.28 232.17 403.95 239.4 403.95 249C403.95 258.6 396.28 265.83 386.11 265.83ZM386.11 243.06C382.83 243.06 380.62 245.44 380.62 248.99C380.62 252.54 382.83 254.92 386.11 254.92C389.39 254.92 391.6 252.54 391.6 248.99C391.6 245.44 389.39 243.06 386.11 243.06Z" fill="#482666"/>
<path d="M415.939 265.83C410.929 265.83 405.899 264.49 402.809 262.34L401.359 261.33L405.729 251.52L407.839 252.91C410.069 254.39 413.269 255.34 415.979 255.34C416.939 255.34 417.559 255.25 417.949 255.16C417.099 254.83 415.629 254.5 414.569 254.26C410.009 253.24 402.379 251.54 402.379 243.48C402.379 238.27 406.219 232.18 417.029 232.18C421.209 232.18 425.339 233.18 428.349 234.93L429.969 235.87L425.879 245.71L423.799 244.59C421.459 243.33 419.099 242.66 416.979 242.66C415.849 242.66 415.209 242.81 414.869 242.94C415.669 243.28 417.219 243.61 418.329 243.85C422.909 244.84 430.589 246.51 430.589 254.57C430.589 260.17 426.059 265.83 415.939 265.83Z" fill="#482666"/>
<path d="M435.6 265.26V243.35H426.92V232.729H456.5V243.35H447.86V265.26H435.6Z" fill="#482666"/>
<path d="M471.19 265.83C461.02 265.83 453.35 258.6 453.35 249C453.35 239.4 461.02 232.17 471.19 232.17C481.36 232.17 489.03 239.4 489.03 249C489.03 258.6 481.36 265.83 471.19 265.83ZM471.19 243.06C467.91 243.06 465.7 245.44 465.7 248.99C465.7 252.54 467.91 254.92 471.19 254.92C474.47 254.92 476.68 252.54 476.68 248.99C476.68 245.44 474.47 243.06 471.19 243.06Z" fill="#482666"/>
<path d="M60.3709 234.869V263.119H52.3809V241.039H47.1309V234.859H60.3709V234.869Z" fill="white"/>
<path d="M64.6113 249C64.6113 239.68 69.8613 234.31 77.0813 234.31C84.3013 234.31 89.5113 239.68 89.5113 249C89.5113 258.32 84.2613 263.69 77.0813 263.69C69.9013 263.69 64.6113 258.32 64.6113 249ZM81.4813 249C81.4813 243.07 79.6213 240.85 77.0813 240.85C74.5413 240.85 72.6413 243.07 72.6413 249C72.6413 254.93 74.5013 257.15 77.0813 257.15C79.6613 257.15 81.4813 254.93 81.4813 249Z" fill="white"/>
<path d="M124.381 257.63H112.431L110.211 263.12H102.061L114.531 234.87H122.401L134.911 263.12H126.601L124.381 257.63ZM122.041 251.74L118.411 242.7L114.781 251.74H122.041Z" fill="white"/>
<path d="M137.17 234.87H145.16V256.79H158.64V263.13H137.17V234.88V234.87Z" fill="white"/>
<path d="M193.841 254.29C193.841 259.09 190.051 263.69 181.531 263.69C177.611 263.69 173.461 262.72 170.551 260.9L173.461 254.89C175.721 256.42 178.631 257.23 181.291 257.23C183.951 257.23 185.771 256.18 185.771 254.28C185.771 252.58 184.521 251.54 181.451 251.54H178.101V246.5L183.141 241.05H172.001V234.87H192.421V239.87L186.571 246.17C191.331 247.18 193.831 250.25 193.831 254.28L193.841 254.29Z" fill="white"/>
<path d="M196.42 249C196.42 239.68 201.67 234.31 208.89 234.31C216.11 234.31 221.32 239.68 221.32 249C221.32 258.32 216.07 263.69 208.89 263.69C201.71 263.69 196.42 258.32 196.42 249ZM213.29 249C213.29 243.07 211.43 240.85 208.89 240.85C206.35 240.85 204.45 243.07 204.45 249C204.45 254.93 206.31 257.15 208.89 257.15C211.47 257.15 213.29 254.93 213.29 249Z" fill="white"/>
<path d="M237.271 234.87H250.631C259.991 234.87 266.411 240.32 266.411 249C266.411 257.68 259.991 263.13 250.631 263.13H237.271V234.88V234.87ZM250.301 256.75C255.101 256.75 258.331 253.88 258.331 249C258.331 244.12 255.101 241.25 250.301 241.25H245.261V256.75H250.301Z" fill="white"/>
<path d="M293.291 256.95V263.12H270.611V234.87H292.771V241.05H278.521V245.81H291.071V251.78H278.521V256.95H293.291Z" fill="white"/>
<path d="M328.4 257.63H316.45L314.23 263.12H306.08L318.55 234.87H326.42L338.93 263.12H330.62L328.4 257.63ZM326.06 251.74L322.43 242.7L318.8 251.74H326.06Z" fill="white"/>
<path d="M359.72 248.39H366.78V260.09C363.51 262.43 359.03 263.68 354.91 263.68C345.91 263.68 339.33 257.59 339.33 248.99C339.33 240.39 345.91 234.3 355.07 234.3C360.36 234.3 364.64 236.12 367.42 239.47L362.33 244.07C360.39 241.93 358.17 240.92 355.47 240.92C350.63 240.92 347.4 244.11 347.4 248.99C347.4 253.87 350.63 257.06 355.39 257.06C356.88 257.06 358.3 256.78 359.71 256.13V248.38L359.72 248.39Z" fill="white"/>
<path d="M370.41 249C370.41 240.52 377.07 234.31 386.11 234.31C395.15 234.31 401.81 240.52 401.81 249C401.81 257.48 395.15 263.69 386.11 263.69C377.07 263.69 370.41 257.47 370.41 249ZM393.74 249C393.74 244.12 390.39 240.93 386.11 240.93C381.83 240.93 378.48 244.12 378.48 249C378.48 253.88 381.83 257.07 386.11 257.07C390.39 257.07 393.74 253.88 393.74 249Z" fill="white"/>
<path d="M404.031 260.579L406.651 254.689C409.151 256.349 412.701 257.479 415.971 257.479C419.241 257.479 420.572 256.549 420.572 255.179C420.572 250.699 404.512 253.969 404.512 243.479C404.512 238.439 408.631 234.319 417.021 234.319C420.691 234.319 424.491 235.169 427.271 236.779L424.811 242.709C422.111 241.259 419.442 240.529 416.982 240.529C413.632 240.529 412.422 241.659 412.422 243.069C412.422 247.389 428.441 244.159 428.441 254.569C428.441 259.489 424.321 263.689 415.931 263.689C411.291 263.689 406.691 262.439 404.021 260.579H404.031Z" fill="white"/>
<path d="M437.741 241.21H429.061V234.87H454.371V241.21H445.731V263.13H437.741V241.21Z" fill="white"/>
<path d="M455.49 249C455.49 240.52 462.15 234.31 471.19 234.31C480.23 234.31 486.89 240.52 486.89 249C486.89 257.48 480.23 263.69 471.19 263.69C462.15 263.69 455.49 257.47 455.49 249ZM478.82 249C478.82 244.12 475.47 240.93 471.19 240.93C466.91 240.93 463.56 244.12 463.56 249C463.56 253.88 466.91 257.07 471.19 257.07C475.47 257.07 478.82 253.88 478.82 249Z" fill="white"/>
</g>
<defs>
<clipPath id="clip0_28_2">
<rect width="518.93" height="269.03" fill="white"/>
</clipPath>
</defs>
</svg>
