<svg width="571" height="319" viewBox="0 0 571 319" fill="none" xmlns="http://www.w3.org/2000/svg">
<g clip-path="url(#clip0_135_627)">
<path d="M53.2406 134.81L45.8906 84.5198L139.851 1.33984L175.181 5.25984L268.321 53.1698L365.411 92.1898L451.971 110.6L458.411 172.98L396.841 218.34L335.101 212.65L325.301 156.17L263.131 146.77L220.541 165.72L214.461 201.02L133.931 205.12L80.5106 190.07L74.2506 135.14L53.2406 134.81Z" fill="#48245F"/>
<path d="M101.931 131.72L101.771 100.6L89.1007 121.85H66.9807L54.5507 101.57V131.72H11.4707V14.6797H47.9907L78.3407 64.5297L107.961 14.6797H144.511L144.851 131.72H101.931Z" fill="#482666"/>
<path d="M147.961 131.72V14.6797H243.401V53.4597H237.391V91.5197H192.901V92.9297H245.261V131.72H147.961Z" fill="#482666"/>
<path d="M287.741 133.72C269.821 133.72 251.801 128.92 240.701 121.19L234.971 117.2L251.171 80.8199L259.491 86.3199C267.271 91.4699 278.411 94.7899 287.881 94.7899C289.091 94.7899 290.141 94.7499 291.051 94.6799C288.361 93.9299 285.201 93.2199 282.701 92.6599C266.281 88.9899 238.801 82.8599 238.801 53.5899C238.801 34.7099 252.631 12.6699 291.601 12.6699C306.571 12.6699 321.361 16.2699 332.181 22.5399L338.581 26.2499L323.441 62.7399L315.221 58.3199C307.041 53.9199 298.821 51.5999 291.461 51.5999C289.671 51.5999 288.241 51.7099 287.111 51.8699C289.951 52.6999 293.601 53.4899 296.401 54.0999C312.911 57.6799 340.541 63.6799 340.541 92.9399C340.541 104.51 335.501 114.92 326.361 122.25C316.991 129.76 303.631 133.72 287.741 133.72Z" fill="#482666"/>
<path d="M110.34 110.6L110.05 57.5202L84.2999 100.73H71.7099L46.0999 58.9502V110.6H19.9199V10.4502H43.2399L78.4299 68.2502L112.77 10.4502H136.09L136.38 110.6H110.34Z" fill="white"/>
<path d="M236.81 88.7102V110.6H156.41V10.4502H234.95V32.3402H184.45V49.2202H228.94V70.4002H184.45V88.7102H236.81Z" fill="white"/>
<path d="M245.539 101.58L254.839 80.6904C263.709 86.5604 276.299 90.5604 287.889 90.5604C299.619 90.5604 304.199 87.2704 304.199 82.4104C304.199 66.5304 247.259 78.1204 247.259 40.9204C247.259 23.0404 261.849 8.44043 291.609 8.44043C304.629 8.44043 318.079 11.4404 327.949 17.1704L319.219 38.2004C309.629 33.0504 300.189 30.4704 291.469 30.4704C279.599 30.4704 275.299 34.4804 275.299 39.4804C275.299 54.7904 332.099 43.3404 332.099 80.2504C332.099 97.7004 317.509 112.58 287.749 112.58C271.289 112.6 254.979 108.17 245.539 101.58Z" fill="white"/>
<path d="M101.931 119.05L101.771 87.92L89.1007 109.18H66.9807L54.5507 88.9V119.05H11.4707V2H47.9907L78.3407 51.86L107.961 2H144.511L144.851 119.05H101.931Z" fill="#482666"/>
<path d="M147.961 119.05V2H243.401V40.79H237.391V78.85H192.901V80.26H245.261V119.05H147.961Z" fill="#482666"/>
<path d="M287.741 121.05C269.821 121.05 251.801 116.25 240.701 108.52L234.971 104.53L251.171 68.15L259.491 73.65C267.271 78.8 278.411 82.12 287.881 82.12C289.091 82.12 290.141 82.08 291.051 82.01C288.361 81.26 285.201 80.55 282.701 79.99C266.281 76.32 238.801 70.19 238.801 40.92C238.801 22.04 252.631 0 291.601 0C306.571 0 321.361 3.6 332.181 9.87L338.581 13.58L323.441 50.07L315.221 45.65C307.041 41.25 298.821 38.93 291.461 38.93C289.671 38.93 288.241 39.04 287.111 39.2C289.951 40.03 293.601 40.82 296.401 41.43C312.911 45.01 340.541 51.01 340.541 80.27C340.541 91.84 335.501 102.25 326.361 109.58C316.991 117.08 303.631 121.05 287.741 121.05Z" fill="#482666"/>
<path d="M110.34 110.6L110.05 57.5202L84.2999 100.73H71.7099L46.0999 58.9502V110.6H19.9199V10.4502H43.2399L78.4299 68.2502L112.77 10.4502H136.09L136.38 110.6H110.34Z" fill="#FCC207"/>
<path d="M236.81 88.7102V110.6H156.41V10.4502H234.95V32.3402H184.45V49.2202H228.94V70.4002H184.45V88.7102H236.81Z" fill="#FCC207"/>
<path d="M245.539 101.58L254.839 80.6904C263.709 86.5604 276.299 90.5604 287.889 90.5604C299.619 90.5604 304.199 87.2704 304.199 82.4104C304.199 66.5304 247.259 78.1204 247.259 40.9204C247.259 23.0404 261.849 8.44043 291.609 8.44043C304.629 8.44043 318.079 11.4404 327.949 17.1704L319.219 38.2004C309.629 33.0504 300.189 30.4704 291.469 30.4704C279.599 30.4704 275.299 34.4804 275.299 39.4804C275.299 54.7904 332.099 43.3404 332.099 80.2504C332.099 97.7004 317.509 112.58 287.749 112.58C271.289 112.6 254.979 108.17 245.539 101.58Z" fill="#FCC207"/>
<path d="M333.42 130.84V68.5801H363.28C383.23 68.5801 397.16 81.3801 397.16 99.7101C397.16 118.04 383.23 130.84 363.28 130.84H333.42ZM362.74 104.92C367.74 104.92 368.42 102.29 368.42 99.7101C368.42 97.1301 367.75 94.5001 362.74 94.5001H362.02V104.92H362.74Z" fill="#482666"/>
<path d="M388.801 130.84V68.5801H440.941V94.1701H438.131V105.25H441.811V130.84H388.801Z" fill="#482666"/>
<path d="M433.859 130.84V68.5801H462.469V104.99H484.859V130.84H433.859Z" fill="#482666"/>
<path d="M341.09 64.75H363.28C378.84 64.75 389.5 73.8 389.5 88.22C389.5 102.64 378.84 111.69 363.28 111.69H341.09V64.75ZM362.74 101.09C370.72 101.09 376.08 96.33 376.08 88.22C376.08 80.11 370.72 75.35 362.74 75.35H354.36V101.1H362.74V101.09Z" fill="white"/>
<path d="M434.151 101.42V111.68H396.471V64.75H433.281V75.01H409.611V82.92H430.461V92.84H409.611V101.42H434.151Z" fill="white"/>
<path d="M441.529 64.75H454.809V101.16H477.199V111.69H441.529V64.75Z" fill="white"/>
<path d="M333.42 119.35V57.0801H363.28C383.23 57.0801 397.16 69.8801 397.16 88.2101C397.16 106.54 383.23 119.34 363.28 119.34H333.42V119.35ZM362.74 93.4201C367.74 93.4201 368.42 90.7901 368.42 88.2101C368.42 85.6301 367.75 83.0001 362.74 83.0001H362.02V93.4201H362.74Z" fill="#482666"/>
<path d="M388.801 119.35V57.0801H440.941V82.6701H438.131V93.7601H441.811V119.35H388.801Z" fill="#482666"/>
<path d="M433.859 119.35V57.0801H462.469V93.4901H484.859V119.35H433.859Z" fill="#482666"/>
<path d="M341.09 64.75H363.28C378.84 64.75 389.5 73.8 389.5 88.22C389.5 102.64 378.84 111.69 363.28 111.69H341.09V64.75ZM362.74 101.09C370.72 101.09 376.08 96.33 376.08 88.22C376.08 80.11 370.72 75.35 362.74 75.35H354.36V101.1H362.74V101.09Z" fill="#FCC207"/>
<path d="M434.151 101.42V111.68H396.471V64.75H433.281V75.01H409.611V82.92H430.461V92.84H409.611V101.42H434.151Z" fill="#FCC207"/>
<path d="M441.529 64.75H454.809V101.16H477.199V111.69H441.529V64.75Z" fill="#FCC207"/>
<path d="M112.39 235.7L105.32 218.23H77.6297L70.5597 235.7H27.6797L74.1497 130.43H109.19L155.8 235.7H112.39ZM91.6997 184.14L91.4797 183.58L91.2597 184.14H91.6997Z" fill="#482666"/>
<path d="M194.771 237.5C161.671 237.5 137.641 214.61 137.641 183.07C137.641 151.53 161.671 128.64 194.771 128.64C213.601 128.64 229.051 135.5 239.431 148.48L243.941 154.11L216.471 178.96L211.361 172.81C206.961 167.51 202.101 165.04 196.061 165.04C185.331 165.04 178.671 171.95 178.671 183.07C178.671 194.19 185.331 201.1 196.061 201.1C202.101 201.1 206.961 198.63 211.361 193.33L216.471 187.18L243.941 212.03L239.431 217.66C229.051 230.64 213.611 237.5 194.771 237.5Z" fill="#482666"/>
<path d="M255.46 235.699V165.939H227.84V130.439H323.72V165.939H296.23V235.699H255.46Z" fill="#482666"/>
<path d="M369.63 237.5C336.77 237.5 311.99 214.1 311.99 183.07C311.99 152.04 336.77 128.64 369.63 128.64C402.49 128.64 427.27 152.04 427.27 183.07C427.27 214.1 402.49 237.5 369.63 237.5ZM369.63 165.04C359.69 165.04 353.01 172.29 353.01 183.07C353.01 193.85 359.69 201.1 369.63 201.1C379.57 201.1 386.25 193.85 386.25 183.07C386.25 172.29 379.57 165.04 369.63 165.04Z" fill="#482666"/>
<path d="M484.561 235.699L468.241 211.799H466.081V235.699H425.311V130.439H474.091C503.021 130.439 521.711 146.509 521.711 171.379C521.711 184.209 516.661 194.839 507.311 202.049L530.411 235.699H484.561ZM472.541 176.819C480.681 176.819 480.681 173.549 480.681 171.379C480.681 169.029 480.681 165.809 472.541 165.809H466.071V176.819H472.541Z" fill="#482666"/>
<path d="M110.489 199.07H72.4595L65.3895 216.54H39.4395L79.1395 126.6H104.189L144.019 216.54H117.549L110.489 199.07ZM103.039 180.31L91.4795 151.53L79.9195 180.31H103.039Z" fill="white"/>
<path d="M145.309 171.57C145.309 144.2 166.249 124.8 194.769 124.8C211.339 124.8 224.709 130.84 233.439 141.76L217.249 156.41C211.599 149.6 204.659 145.87 196.049 145.87C181.269 145.87 170.999 156.15 170.999 171.57C170.999 186.99 181.279 197.27 196.049 197.27C204.659 197.27 211.599 193.54 217.249 186.73L233.439 201.38C224.699 212.3 211.339 218.34 194.769 218.34C166.249 218.34 145.309 198.94 145.309 171.57Z" fill="white"/>
<path d="M263.12 146.78H235.5V126.6H316.06V146.77H288.57V216.53H263.13V146.78H263.12Z" fill="white"/>
<path d="M319.65 171.57C319.65 144.59 340.85 124.8 369.63 124.8C398.41 124.8 419.61 144.59 419.61 171.57C419.61 198.55 398.41 218.34 369.63 218.34C340.85 218.34 319.65 198.55 319.65 171.57ZM393.92 171.57C393.92 156.02 383.26 145.87 369.64 145.87C356.02 145.87 345.36 156.02 345.36 171.57C345.36 187.12 356.02 197.27 369.64 197.27C383.26 197.27 393.92 187.12 393.92 171.57Z" fill="white"/>
<path d="M472.289 192.64H458.409V216.54H432.969V126.6H474.079C498.619 126.6 514.039 139.32 514.039 159.88C514.039 173.11 507.619 182.88 496.439 188.27L515.839 216.54H488.599L472.289 192.64ZM472.539 146.65H458.409V172.99H472.539C483.079 172.99 488.339 168.11 488.339 159.89C488.349 151.53 483.079 146.65 472.539 146.65Z" fill="white"/>
<path d="M112.39 224.2L105.32 206.73H77.6297L70.5597 224.2H27.6797L74.1497 118.93H109.19L155.8 224.2H112.39ZM91.6997 172.64L91.4797 172.08L91.2597 172.64H91.6997Z" fill="#48245F"/>
<path d="M194.771 226C161.671 226 137.641 203.11 137.641 171.57C137.641 140.03 161.671 117.14 194.771 117.14C213.601 117.14 229.051 124 239.431 136.98L243.941 142.61L216.471 167.46L211.361 161.31C206.961 156.01 202.101 153.54 196.061 153.54C185.331 153.54 178.671 160.45 178.671 171.57C178.671 182.69 185.331 189.6 196.061 189.6C202.101 189.6 206.961 187.13 211.361 181.83L216.471 175.68L243.941 200.53L239.431 206.16C229.051 219.14 213.611 226 194.771 226Z" fill="#48245F"/>
<path d="M255.46 224.199V154.439H227.84V118.939H323.72V154.439H296.23V224.199H255.46Z" fill="#48245F"/>
<path d="M369.63 226C336.77 226 311.99 202.6 311.99 171.57C311.99 140.54 336.77 117.14 369.63 117.14C402.49 117.14 427.27 140.54 427.27 171.57C427.27 202.6 402.49 226 369.63 226ZM369.63 153.54C359.69 153.54 353.01 160.79 353.01 171.57C353.01 182.35 359.69 189.6 369.63 189.6C379.57 189.6 386.25 182.35 386.25 171.57C386.25 160.79 379.57 153.54 369.63 153.54Z" fill="#48245F"/>
<path d="M484.561 224.199L468.241 200.299H466.081V224.199H425.311V118.939H474.091C503.021 118.939 521.711 135.009 521.711 159.879C521.711 172.709 516.661 183.339 507.311 190.549L530.411 224.199H484.561ZM472.541 165.319C480.681 165.319 480.681 162.049 480.681 159.879C480.681 157.529 480.681 154.309 472.541 154.309H466.071V165.319H472.541Z" fill="#48245F"/>
<path d="M110.489 199.07H72.4595L65.3895 216.54H39.4395L79.1395 126.6H104.189L144.019 216.54H117.549L110.489 199.07ZM103.039 180.31L91.4795 151.53L79.9195 180.31H103.039Z" fill="#FCC207"/>
<path d="M145.309 171.57C145.309 144.2 166.249 124.8 194.769 124.8C211.339 124.8 224.709 130.84 233.439 141.76L217.249 156.41C211.599 149.6 204.659 145.87 196.049 145.87C181.269 145.87 170.999 156.15 170.999 171.57C170.999 186.99 181.279 197.27 196.049 197.27C204.659 197.27 211.599 193.54 217.249 186.73L233.439 201.38C224.699 212.3 211.339 218.34 194.769 218.34C166.249 218.34 145.309 198.94 145.309 171.57Z" fill="#FCC207"/>
<path d="M263.12 146.78H235.5V126.6H316.06V146.77H288.57V216.53H263.13V146.78H263.12Z" fill="#FCC207"/>
<path d="M319.65 171.57C319.65 144.59 340.85 124.8 369.63 124.8C398.41 124.8 419.61 144.59 419.61 171.57C419.61 198.55 398.41 218.34 369.63 218.34C340.85 218.34 319.65 198.55 319.65 171.57ZM393.92 171.57C393.92 156.02 383.26 145.87 369.64 145.87C356.02 145.87 345.36 156.02 345.36 171.57C345.36 187.12 356.02 197.27 369.64 197.27C383.26 197.27 393.92 187.12 393.92 171.57Z" fill="#FCC207"/>
<path d="M472.289 192.64H458.409V216.54H432.969V126.6H474.079C498.619 126.6 514.039 139.32 514.039 159.88C514.039 173.11 507.619 182.88 496.439 188.27L515.839 216.54H488.599L472.289 192.64ZM472.539 146.65H458.409V172.99H472.539C483.079 172.99 488.339 168.11 488.339 159.89C488.349 151.53 483.079 146.65 472.539 146.65Z" fill="#FCC207"/>
<path d="M48.9492 277.68L50.7992 255.61H50.8092C49.7392 254.5 49.0992 253.01 49.0992 251.33C49.0992 247.75 52.0592 244.95 55.8392 244.95C59.6592 244.95 62.5392 247.69 62.5392 251.33C62.5392 253.02 61.8992 254.51 60.8292 255.62L62.7292 277.69H48.9492V277.68Z" fill="#482666"/>
<path d="M78.7991 272.03C68.5591 272.03 61.1191 264.95 61.1191 255.2C61.1191 245.45 68.5491 238.37 78.7991 238.37C84.6291 238.37 89.4091 240.49 92.6191 244.5L93.8791 246.07L85.6491 253.52L84.2191 251.8C82.7791 250.07 81.1891 249.26 79.2091 249.26C75.7291 249.26 73.4791 251.59 73.4791 255.19C73.4791 258.79 75.7291 261.12 79.2091 261.12C81.1891 261.12 82.7891 260.31 84.2191 258.58L85.6491 256.86L93.8791 264.31L92.6191 265.88C89.4091 269.92 84.6291 272.03 78.7991 272.03Z" fill="#482666"/>
<path d="M92.3594 271.47V238.94H118.799V249.39H104.549V249.88H117.099V260.13H104.549V261.02H119.319V271.47H92.3594Z" fill="#482666"/>
<path d="M119.49 271.47V238.94H131.75V260.86H145.23V271.47H119.49Z" fill="#482666"/>
<path d="M144.109 271.47V238.94H170.539V249.39H156.289V249.88H168.839V260.13H156.289V261.02H171.059V271.47H144.109Z" fill="#482666"/>
<path d="M171.23 271.47V238.94H187.82C200.07 238.94 201.02 246.23 201.02 248.46C201.02 250.69 200.28 252.68 198.93 254.26C201.16 256 202.39 258.54 202.39 261.57C202.39 267.76 197.25 271.46 188.63 271.46H171.23V271.47ZM187.98 261.42C190.04 261.42 190.04 260.93 190.04 260.69C190.04 260.45 190.04 259.96 187.98 259.96H183.42V261.42H187.98ZM186.77 250.16C188.1 250.16 188.58 249.87 188.63 249.8C188.63 249.8 188.66 249.74 188.66 249.56C188.66 249.41 188.63 249.35 188.63 249.35C188.63 249.35 188.27 248.99 186.76 248.99H183.41V250.16H186.77Z" fill="#482666"/>
<path d="M220.75 271.47L215.62 263.96H214.53V271.47H202.26V238.94H217.31C226.23 238.94 232 243.88 232 251.53C232 255.56 230.38 258.89 227.38 261.11L234.49 271.47H220.75ZM216.83 253.51C219.66 253.51 219.66 252.27 219.66 251.53C219.66 250.78 219.66 249.51 216.83 249.51H214.53V253.51H216.83Z" fill="#482666"/>
<path d="M232.131 271.47V238.94H258.561V249.39H244.321V249.88H256.871V260.13H244.321V261.02H259.091V271.47H232.131Z" fill="#482666"/>
<path d="M284.77 271.47L284.72 262.05L280.77 268.68H274.8L270.92 262.34V271.47H259.25V238.94H269.17L277.88 253.24L286.37 238.94H296.3L296.39 271.47H284.77Z" fill="#482666"/>
<path d="M314.141 272.03C303.971 272.03 296.301 264.8 296.301 255.2C296.301 245.61 303.971 238.37 314.141 238.37C324.311 238.37 331.981 245.6 331.981 255.2C331.981 264.8 324.311 272.03 314.141 272.03ZM314.141 249.27C310.861 249.27 308.651 251.65 308.651 255.2C308.651 258.75 310.861 261.13 314.141 261.13C317.421 261.13 319.631 258.75 319.631 255.2C319.631 251.66 317.431 249.27 314.141 249.27Z" fill="#482666"/>
<path d="M343.971 272.03C338.961 272.03 333.931 270.69 330.841 268.54L329.391 267.53L333.761 257.72L335.871 259.11C338.101 260.59 341.301 261.54 344.011 261.54C344.971 261.54 345.591 261.45 345.981 261.36C345.131 261.03 343.661 260.7 342.601 260.46C338.041 259.44 330.411 257.74 330.411 249.68C330.411 244.47 334.251 238.38 345.061 238.38C349.241 238.38 353.371 239.38 356.381 241.13L358.001 242.07L353.911 251.91L351.831 250.79C349.491 249.53 347.131 248.86 345.011 248.86C343.881 248.86 343.241 249.01 342.901 249.14C343.701 249.48 345.251 249.81 346.361 250.05C350.941 251.04 358.621 252.71 358.621 260.77C358.621 266.38 354.091 272.03 343.971 272.03Z" fill="#482666"/>
<path d="M375.77 271.47V249.55H367.1V238.94H396.68V249.55H388.04V271.47H375.77Z" fill="#482666"/>
<path d="M411.369 272.03C401.199 272.03 393.529 264.8 393.529 255.2C393.529 245.61 401.199 238.37 411.369 238.37C421.539 238.37 429.209 245.6 429.209 255.2C429.209 264.8 421.539 272.03 411.369 272.03ZM411.369 249.27C408.089 249.27 405.879 251.65 405.879 255.2C405.879 258.75 408.089 261.13 411.369 261.13C414.649 261.13 416.859 258.75 416.859 255.2C416.859 251.66 414.649 249.27 411.369 249.27Z" fill="#482666"/>
<path d="M429.131 271.47V238.94H444.631C455.351 238.94 462.551 245.48 462.551 255.2C462.551 264.93 455.351 271.46 444.631 271.46H429.131V271.47ZM444.301 260.82C448.051 260.82 450.191 258.77 450.191 255.21C450.191 251.64 448.041 249.6 444.301 249.6H441.391V260.82H444.301Z" fill="#482666"/>
<path d="M483.909 271.47L481.689 265.98H472.629L470.409 271.47H457.529L471.889 238.94H482.549L496.949 271.47H483.909ZM477.629 255.81L477.159 254.64L476.689 255.81H477.629Z" fill="#482666"/>
<path d="M505.85 272.03C500.84 272.03 495.81 270.69 492.72 268.54L491.27 267.53L495.64 257.72L497.75 259.11C499.98 260.59 503.18 261.54 505.89 261.54C506.85 261.54 507.47 261.45 507.86 261.36C507.01 261.03 505.54 260.7 504.48 260.46C499.92 259.44 492.29 257.74 492.29 249.68C492.29 244.47 496.13 238.38 506.94 238.38C511.12 238.38 515.25 239.38 518.26 241.13L519.88 242.07L515.79 251.91L513.71 250.79C511.37 249.53 509.01 248.86 506.89 248.86C505.76 248.86 505.12 249.01 504.78 249.14C505.58 249.48 507.13 249.81 508.24 250.05C512.82 251.04 520.5 252.71 520.5 260.77C520.5 266.38 515.97 272.03 505.85 272.03Z" fill="#482666"/>
<path d="M0 311.76V279.23H12.27V301.14H25.75V311.76H0Z" fill="#482666"/>
<path d="M46.7902 311.76L44.5702 306.27H35.5002L33.2802 311.76H20.4102L34.7702 279.23H45.4302L59.8302 311.76H46.7902ZM40.5002 296.1L40.0302 294.93L39.5602 296.1H40.5002Z" fill="#482666"/>
<path d="M68.7304 312.32C63.7204 312.32 58.6904 310.98 55.6004 308.83L54.1504 307.82L58.5204 298.01L60.6304 299.4C62.8604 300.88 66.0604 301.83 68.7704 301.83C69.7304 301.83 70.3504 301.74 70.7404 301.65C69.8904 301.32 68.4204 300.99 67.3604 300.75C62.8004 299.73 55.1704 298.03 55.1704 289.97C55.1704 284.76 59.0104 278.67 69.8204 278.67C74.0004 278.67 78.1304 279.67 81.1404 281.42L82.7604 282.36L78.6704 292.2L76.5904 291.08C74.2504 289.82 71.8904 289.15 69.7704 289.15C68.6404 289.15 68.0004 289.3 67.6604 289.43C68.4604 289.77 70.0104 290.1 71.1204 290.34C75.7004 291.33 83.3804 293 83.3804 301.06C83.3804 306.67 78.8504 312.32 68.7304 312.32Z" fill="#482666"/>
<path d="M94.5195 311.76V279.23H109.57C118.49 279.23 124.26 284.17 124.26 291.82C124.26 299.44 118.49 304.37 109.57 304.37H106.78V311.76H94.5195ZM109.09 293.8C111.92 293.8 111.92 292.56 111.92 291.82C111.92 291.07 111.92 289.8 109.09 289.8H106.79V293.8H109.09Z" fill="#482666"/>
<path d="M123.859 311.76V279.23H150.299V289.68H136.049V290.17H148.599V300.42H136.049V301.31H150.819V311.76H123.859Z" fill="#482666"/>
<path d="M169.47 311.76L164.34 304.25H163.25V311.76H150.98V279.23H166.03C174.95 279.23 180.72 284.17 180.72 291.82C180.72 295.85 179.1 299.18 176.1 301.4L183.21 311.76H169.47ZM165.56 293.8C168.39 293.8 168.39 292.56 168.39 291.82C168.39 291.07 168.39 289.8 165.56 289.8H163.26V293.8H165.56Z" fill="#482666"/>
<path d="M192.92 312.32C187.91 312.32 182.88 310.98 179.79 308.83L178.34 307.82L182.71 298.01L184.82 299.4C187.05 300.88 190.25 301.83 192.96 301.83C193.92 301.83 194.54 301.74 194.93 301.65C194.08 301.32 192.61 300.99 191.55 300.75C186.99 299.73 179.36 298.03 179.36 289.97C179.36 284.76 183.2 278.67 194.01 278.67C198.19 278.67 202.32 279.67 205.33 281.42L206.95 282.36L202.86 292.2L200.78 291.08C198.44 289.82 196.08 289.15 193.96 289.15C192.83 289.15 192.19 289.3 191.85 289.43C192.65 289.77 194.2 290.1 195.31 290.34C199.89 291.33 207.57 293 207.57 301.06C207.57 306.67 203.04 312.32 192.92 312.32Z" fill="#482666"/>
<path d="M223.35 312.32C213.18 312.32 205.51 305.09 205.51 295.49C205.51 285.9 213.18 278.66 223.35 278.66C233.52 278.66 241.19 285.89 241.19 295.49C241.19 305.09 233.52 312.32 223.35 312.32ZM223.35 289.56C220.07 289.56 217.86 291.94 217.86 295.49C217.86 299.04 220.07 301.42 223.35 301.42C226.63 301.42 228.84 299.04 228.84 295.49C228.84 291.94 226.64 289.56 223.35 289.56Z" fill="#482666"/>
<path d="M262.539 311.76L253.219 300.5V311.76H241.109V279.23H250.829L260.159 290.49V279.23H272.269V311.76H262.539Z" fill="#482666"/>
<path d="M295.489 311.76L293.269 306.27H284.209L281.989 311.76H269.109L283.469 279.23H294.129L308.529 311.76H295.489ZM289.199 296.1L288.729 294.93L288.259 296.1H289.199Z" fill="#482666"/>
<path d="M317.43 312.32C312.42 312.32 307.39 310.98 304.3 308.83L302.85 307.82L307.22 298.01L309.33 299.4C311.56 300.88 314.76 301.83 317.47 301.83C318.43 301.83 319.05 301.74 319.44 301.65C318.59 301.32 317.12 300.99 316.06 300.75C311.5 299.73 303.87 298.03 303.87 289.97C303.87 284.76 307.71 278.67 318.52 278.67C322.7 278.67 326.83 279.67 329.84 281.42L331.46 282.36L327.37 292.2L325.29 291.08C322.95 289.82 320.59 289.15 318.47 289.15C317.34 289.15 316.7 289.3 316.36 289.43C317.16 289.77 318.71 290.1 319.82 290.34C324.4 291.33 332.08 293 332.08 301.06C332.08 306.67 327.55 312.32 317.43 312.32Z" fill="#482666"/>
<path d="M368.85 318.58C363.76 318.58 360.31 316.89 355.44 311.92C347.23 310.23 341.77 303.71 341.77 295.49C341.77 285.9 349.44 278.66 359.61 278.66C369.78 278.66 377.45 285.89 377.45 295.49C377.45 299.51 376.13 303.16 373.78 306.02L379.55 312.87L378.42 314.25C376.11 317.04 372.71 318.58 368.85 318.58ZM359.61 289.56C356.33 289.56 354.12 291.94 354.12 295.49C354.12 299.04 356.33 301.42 359.61 301.42C362.89 301.42 365.1 299.04 365.1 295.49C365.1 291.94 362.89 289.56 359.61 289.56Z" fill="#482666"/>
<path d="M392.539 312.32C382.889 312.32 377.119 306.6 377.119 297.03V279.23H389.389V296.79C389.389 301.43 391.409 301.43 392.619 301.43C393.809 301.43 395.809 301.43 395.809 296.79V279.23H407.959V297.03C407.959 306.6 402.189 312.32 392.539 312.32Z" fill="#482666"/>
<path d="M409.09 311.76V279.23H435.52V289.68H421.28V290.17H433.83V300.42H421.28V301.31H436.05V311.76H409.09Z" fill="#482666"/>
<path d="M447.961 311.76V279.23H474.391V289.68H460.141V290.17H472.701V300.42H460.141V301.31H474.921V311.76H447.961Z" fill="#482666"/>
<path d="M493.56 311.76L488.43 304.25H487.34V311.76H475.07V279.23H490.12C499.04 279.23 504.81 284.17 504.81 291.82C504.81 295.85 503.19 299.18 500.19 301.4L507.3 311.76H493.56ZM489.65 293.8C492.48 293.8 492.48 292.56 492.48 291.82C492.48 291.07 492.48 289.8 489.65 289.8H487.35V293.8H489.65Z" fill="#482666"/>
<path d="M504.949 311.76V279.23H531.379V289.68H517.129V290.17H529.679V300.42H517.129V301.31H531.899V311.76H504.949Z" fill="#482666"/>
<path d="M544.131 312.32C539.121 312.32 534.091 310.98 531.001 308.83L529.551 307.82L533.921 298.01L536.031 299.4C538.261 300.88 541.461 301.83 544.171 301.83C545.131 301.83 545.751 301.74 546.141 301.65C545.291 301.32 543.821 300.99 542.761 300.75C538.201 299.73 530.571 298.03 530.571 289.97C530.571 284.76 534.411 278.67 545.221 278.67C549.401 278.67 553.531 279.67 556.541 281.42L558.161 282.36L554.071 292.2L551.991 291.08C549.651 289.82 547.291 289.15 545.171 289.15C544.041 289.15 543.401 289.3 543.061 289.43C543.861 289.77 545.411 290.1 546.521 290.34C551.101 291.33 558.781 293 558.781 301.06C558.781 306.67 554.251 312.32 544.131 312.32Z" fill="#482666"/>
<path d="M563.589 312.12C559.809 312.12 556.849 309.32 556.849 305.74C556.849 304.06 557.489 302.57 558.559 301.46H558.549L556.699 279.22H570.469L568.569 301.45C569.639 302.56 570.279 304.05 570.279 305.74C570.289 309.38 567.409 312.12 563.589 312.12Z" fill="#482666"/>
<path d="M60.4002 248.12C60.4002 250.46 58.5402 252.28 55.8402 252.28C53.1402 252.28 51.2402 250.46 51.2402 248.12C51.2402 245.78 53.1402 243.88 55.8402 243.88C58.5402 243.88 60.4002 245.78 60.4002 248.12ZM60.4002 272.34H51.2802L52.7702 254.54H58.8602L60.4002 272.34Z" fill="white"/>
<path d="M63.2598 252C63.2598 243.4 69.8398 237.31 78.7998 237.31C84.0098 237.31 88.1998 239.21 90.9498 242.64L85.8598 247.24C84.0798 245.1 81.8998 243.93 79.1998 243.93C74.5598 243.93 71.3298 247.16 71.3298 252C71.3298 256.84 74.5598 260.07 79.1998 260.07C81.8998 260.07 84.0798 258.9 85.8598 256.76L90.9498 261.36C88.2098 264.79 84.0098 266.69 78.7998 266.69C69.8398 266.69 63.2598 260.59 63.2598 252Z" fill="white"/>
<path d="M117.18 259.949V266.119H94.5V237.869H116.66V244.049H102.41V248.809H114.96V254.779H102.41V259.949H117.18Z" fill="white"/>
<path d="M121.621 237.869H129.611V259.789H143.091V266.129H121.621V237.869Z" fill="white"/>
<path d="M168.93 259.949V266.119H146.25V237.869H168.41V244.049H154.16V248.809H166.71V254.779H154.16V259.949H168.93Z" fill="white"/>
<path d="M200.251 258.38C200.251 263.26 196.211 266.13 188.631 266.13H173.371V237.88H187.821C195.251 237.88 198.881 240.91 198.881 245.27C198.881 247.97 197.511 250.15 195.091 251.4C198.271 252.52 200.251 254.94 200.251 258.38ZM181.281 243.64V249.09H186.771C189.431 249.09 190.811 248.16 190.811 246.34C190.811 244.56 189.441 243.64 186.771 243.64H181.281ZM192.171 257.49C192.171 255.55 190.721 254.62 187.971 254.62H181.271V260.35H187.971C190.721 260.35 192.171 259.42 192.171 257.49Z" fill="white"/>
<path d="M216.75 258.62H212.39V266.13H204.4V237.88H217.32C225.03 237.88 229.87 241.88 229.87 248.33C229.87 252.49 227.85 255.55 224.34 257.25L230.43 266.13H221.87L216.75 258.62ZM216.83 244.17H212.39V252.44H216.83C220.14 252.44 221.79 250.91 221.79 248.32C221.8 245.7 220.14 244.17 216.83 244.17Z" fill="white"/>
<path d="M256.951 259.949V266.119H234.271V237.869H256.431V244.049H242.181V248.809H254.731V254.779H242.181V259.949H256.951Z" fill="white"/>
<path d="M286.901 266.12L286.821 251.15L279.561 263.34H276.001L268.781 251.56V266.13H261.391V237.88H267.971L277.901 254.19L287.591 237.88H294.171L294.251 266.13H286.901V266.12Z" fill="white"/>
<path d="M298.441 252C298.441 243.52 305.101 237.31 314.141 237.31C323.181 237.31 329.841 243.52 329.841 252C329.841 260.48 323.181 266.69 314.141 266.69C305.101 266.69 298.441 260.47 298.441 252ZM321.771 252C321.771 247.12 318.421 243.93 314.141 243.93C309.861 243.93 306.511 247.12 306.511 252C306.511 256.88 309.861 260.07 314.141 260.07C318.421 260.07 321.771 256.88 321.771 252Z" fill="white"/>
<path d="M332.061 263.579L334.681 257.689C337.181 259.349 340.731 260.479 344.001 260.479C347.311 260.479 348.601 259.549 348.601 258.179C348.601 253.699 332.541 256.969 332.541 246.479C332.541 241.439 336.661 237.319 345.051 237.319C348.721 237.319 352.521 238.169 355.301 239.779L352.841 245.709C350.141 244.259 347.471 243.529 345.011 243.529C341.661 243.529 340.451 244.659 340.451 246.069C340.451 250.389 356.471 247.159 356.471 257.569C356.471 262.489 352.351 266.689 343.961 266.689C339.331 266.689 334.731 265.439 332.061 263.579Z" fill="white"/>
<path d="M377.91 244.209H369.23V237.869H394.54V244.209H385.9V266.129H377.91V244.209Z" fill="white"/>
<path d="M395.67 252C395.67 243.52 402.33 237.31 411.37 237.31C420.41 237.31 427.07 243.52 427.07 252C427.07 260.48 420.41 266.69 411.37 266.69C402.33 266.69 395.67 260.47 395.67 252ZM419 252C419 247.12 415.65 243.93 411.37 243.93C407.09 243.93 403.74 247.12 403.74 252C403.74 256.88 407.09 260.07 411.37 260.07C415.65 260.07 419 256.88 419 252Z" fill="white"/>
<path d="M431.271 237.869H444.632C453.992 237.869 460.411 243.319 460.411 251.999C460.411 260.679 453.992 266.129 444.632 266.129H431.271V237.869ZM444.301 259.749C449.101 259.749 452.331 256.879 452.331 251.999C452.331 247.119 449.101 244.249 444.301 244.249H439.262V259.749H444.301Z" fill="white"/>
<path d="M483.131 260.629H471.181L468.961 266.119H460.811L473.281 237.869H481.151L493.661 266.119H485.351L483.131 260.629ZM480.791 254.739L477.161 245.699L473.531 254.739H480.791Z" fill="white"/>
<path d="M493.951 263.579L496.571 257.689C499.071 259.349 502.621 260.479 505.891 260.479C509.201 260.479 510.491 259.549 510.491 258.179C510.491 253.699 494.431 256.969 494.431 246.479C494.431 241.439 498.551 237.319 506.941 237.319C510.611 237.319 514.411 238.169 517.191 239.779L514.731 245.709C512.031 244.259 509.361 243.529 506.901 243.529C503.551 243.529 502.341 244.659 502.341 246.069C502.341 250.389 518.361 247.159 518.361 257.569C518.361 262.489 514.241 266.689 505.851 266.689C501.211 266.689 496.611 265.439 493.951 263.579Z" fill="white"/>
<path d="M2.14062 278.159H10.1306V300.079H23.6106V306.419H2.14062V278.159Z" fill="white"/>
<path d="M46.0114 300.919H34.0614L31.8414 306.409H23.6914L36.1614 278.159H44.0314L56.5414 306.409H48.2314L46.0114 300.919ZM43.6714 295.029L40.0414 285.989L36.4114 295.029H43.6714Z" fill="white"/>
<path d="M56.8301 303.869L59.4501 297.979C61.9501 299.639 65.5001 300.769 68.7701 300.769C72.0801 300.769 73.3701 299.839 73.3701 298.469C73.3701 293.989 57.3101 297.259 57.3101 286.769C57.3101 281.729 61.4301 277.609 69.8201 277.609C73.4901 277.609 77.2901 278.459 80.0701 280.069L77.6101 285.999C74.9101 284.549 72.2401 283.819 69.7801 283.819C66.4301 283.819 65.2201 284.949 65.2201 286.359C65.2201 290.679 81.2401 287.449 81.2401 297.859C81.2401 302.779 77.1201 306.979 68.7301 306.979C64.0901 306.979 59.4901 305.729 56.8301 303.869Z" fill="white"/>
<path d="M122.13 288.609C122.13 295.029 117.29 299.019 109.58 299.019H104.66V306.409H96.6699V278.159H109.59C117.28 278.159 122.13 282.159 122.13 288.609ZM114.06 288.609C114.06 285.989 112.41 284.449 109.1 284.449H104.66V292.719H109.1C112.4 292.729 114.06 291.199 114.06 288.609Z" fill="white"/>
<path d="M148.69 300.239V306.409H126V278.159H148.16V284.339H133.91V289.099H146.46V295.069H133.91V300.239H148.69Z" fill="white"/>
<path d="M165.481 298.91H161.121V306.42H153.131V278.17H166.051C173.761 278.17 178.601 282.17 178.601 288.62C178.601 292.78 176.581 295.84 173.071 297.54L179.161 306.42H170.601L165.481 298.91ZM165.561 284.46H161.121V292.73H165.561C168.871 292.73 170.521 291.2 170.521 288.61C170.521 285.99 168.871 284.46 165.561 284.46Z" fill="white"/>
<path d="M181.01 303.869L183.63 297.979C186.13 299.639 189.68 300.769 192.95 300.769C196.26 300.769 197.55 299.839 197.55 298.469C197.55 293.989 181.49 297.259 181.49 286.769C181.49 281.729 185.61 277.609 194 277.609C197.67 277.609 201.47 278.459 204.25 280.069L201.79 285.999C199.09 284.549 196.42 283.819 193.96 283.819C190.61 283.819 189.4 284.949 189.4 286.359C189.4 290.679 205.42 287.449 205.42 297.859C205.42 302.779 201.3 306.979 192.91 306.979C188.28 306.979 183.68 305.729 181.01 303.869Z" fill="white"/>
<path d="M207.65 292.29C207.65 283.81 214.31 277.6 223.35 277.6C232.39 277.6 239.05 283.81 239.05 292.29C239.05 300.77 232.39 306.98 223.35 306.98C214.31 306.98 207.65 300.76 207.65 292.29ZM230.98 292.29C230.98 287.41 227.63 284.22 223.35 284.22C219.07 284.22 215.72 287.41 215.72 292.29C215.72 297.17 219.07 300.36 223.35 300.36C227.63 300.36 230.98 297.17 230.98 292.29Z" fill="white"/>
<path d="M270.13 278.159V306.409H263.55L251.08 291.359V306.409H243.25V278.159H249.83L262.3 293.209V278.159H270.13Z" fill="white"/>
<path d="M294.711 300.919H282.761L280.541 306.409H272.391L284.861 278.159H292.731L305.241 306.409H296.931L294.711 300.919ZM292.371 295.029L288.741 285.989L285.111 295.029H292.371Z" fill="white"/>
<path d="M305.531 303.869L308.151 297.979C310.651 299.639 314.201 300.769 317.471 300.769C320.781 300.769 322.071 299.839 322.071 298.469C322.071 293.989 306.011 297.259 306.011 286.769C306.011 281.729 310.131 277.609 318.521 277.609C322.191 277.609 325.991 278.459 328.771 280.069L326.311 285.999C323.611 284.549 320.941 283.819 318.481 283.819C315.131 283.819 313.921 284.949 313.921 286.359C313.921 290.679 329.941 287.449 329.941 297.859C329.941 302.779 325.821 306.979 317.431 306.979C312.791 306.979 308.191 305.729 305.531 303.869Z" fill="white"/>
<path d="M376.76 309.68C374.86 311.98 372.08 313.23 368.85 313.23C364.25 313.23 361.22 311.66 356.5 306.73C349.07 305.48 343.91 299.75 343.91 292.28C343.91 283.8 350.57 277.59 359.61 277.59C368.65 277.59 375.31 283.8 375.31 292.28C375.31 298.7 371.48 303.82 365.7 305.92C366.83 307.13 367.8 307.53 369.01 307.53C370.54 307.53 372.04 306.84 373.29 305.55L376.76 309.68ZM359.61 300.36C363.89 300.36 367.24 297.17 367.24 292.29C367.24 287.41 363.89 284.22 359.61 284.22C355.33 284.22 351.98 287.41 351.98 292.29C351.98 297.17 355.33 300.36 359.61 300.36Z" fill="white"/>
<path d="M379.26 293.819V278.159H387.25V293.579C387.25 298.419 389.27 300.359 392.62 300.359C395.93 300.359 397.95 298.419 397.95 293.579V278.159H405.82V293.819C405.82 302.249 400.9 306.979 392.54 306.979C384.18 306.979 379.26 302.249 379.26 293.819Z" fill="white"/>
<path d="M433.91 300.239V306.409H411.23V278.159H433.39V284.339H419.14V289.099H431.69V295.069H419.14V300.239H433.91Z" fill="white"/>
<path d="M472.782 300.239V306.409H450.102V278.159H472.262V284.339H458.012V289.099H470.562V295.069H458.012V300.239H472.782Z" fill="white"/>
<path d="M489.571 298.91H485.211V306.42H477.221V278.17H490.141C497.851 278.17 502.691 282.17 502.691 288.62C502.691 292.78 500.671 295.84 497.161 297.54L503.251 306.42H494.691L489.571 298.91ZM489.651 284.46H485.211V292.73H489.651C492.961 292.73 494.611 291.2 494.611 288.61C494.611 285.99 492.961 284.46 489.651 284.46Z" fill="white"/>
<path d="M529.77 300.239V306.409H507.09V278.159H529.25V284.339H515V289.099H527.55V295.069H515V300.239H529.77Z" fill="white"/>
<path d="M532.23 303.869L534.85 297.979C537.35 299.639 540.9 300.769 544.17 300.769C547.48 300.769 548.771 299.839 548.771 298.469C548.771 293.989 532.711 297.259 532.711 286.769C532.711 281.729 536.83 277.609 545.22 277.609C548.89 277.609 552.69 278.459 555.47 280.069L553.01 285.999C550.31 284.549 547.64 283.819 545.18 283.819C541.83 283.819 540.62 284.949 540.62 286.359C540.62 290.679 556.641 287.449 556.641 297.859C556.641 302.779 552.52 306.979 544.13 306.979C539.49 306.979 534.89 305.729 532.23 303.869Z" fill="white"/>
<path d="M558.99 302.539C558.99 300.159 560.89 298.379 563.59 298.379C566.29 298.379 568.15 300.159 568.15 302.539C568.15 304.879 566.29 306.779 563.59 306.779C560.89 306.779 558.99 304.879 558.99 302.539ZM559.03 278.159H568.15L566.62 296.119H560.53L559.03 278.159Z" fill="white"/>
<path d="M48.9492 274.48L50.7992 252.41H50.8092C49.7392 251.3 49.0992 249.81 49.0992 248.13C49.0992 244.55 52.0592 241.75 55.8392 241.75C59.6592 241.75 62.5392 244.49 62.5392 248.13C62.5392 249.82 61.8992 251.31 60.8292 252.42L62.7292 274.49H48.9492V274.48Z" fill="#482666"/>
<path d="M78.7991 268.83C68.5591 268.83 61.1191 261.75 61.1191 252C61.1191 242.25 68.5491 235.17 78.7991 235.17C84.6291 235.17 89.4091 237.29 92.6191 241.3L93.8791 242.87L85.6491 250.32L84.2191 248.6C82.7791 246.87 81.1891 246.06 79.2091 246.06C75.7291 246.06 73.4791 248.39 73.4791 251.99C73.4791 255.59 75.7291 257.92 79.2091 257.92C81.1891 257.92 82.7891 257.11 84.2191 255.38L85.6491 253.66L93.8791 261.11L92.6191 262.68C89.4091 266.71 84.6291 268.83 78.7991 268.83Z" fill="#482666"/>
<path d="M92.3594 268.26V235.729H118.799V246.189H104.549V246.669H117.099V256.92H104.549V257.809H119.319V268.26H92.3594Z" fill="#482666"/>
<path d="M119.49 268.26V235.729H131.75V257.649H145.23V268.26H119.49Z" fill="#482666"/>
<path d="M144.109 268.26V235.729H170.539V246.189H156.289V246.669H168.839V256.92H156.289V257.809H171.059V268.26H144.109Z" fill="#482666"/>
<path d="M171.23 268.26V235.729H187.82C200.07 235.729 201.02 243.019 201.02 245.249C201.02 247.479 200.28 249.469 198.93 251.049C201.16 252.789 202.39 255.329 202.39 258.359C202.39 264.549 197.25 268.249 188.63 268.249H171.23V268.26ZM187.98 258.209C190.04 258.209 190.04 257.72 190.04 257.48C190.04 257.24 190.04 256.749 187.98 256.749H183.42V258.209H187.98ZM186.77 246.96C188.1 246.96 188.58 246.67 188.63 246.6C188.63 246.6 188.66 246.539 188.66 246.359C188.66 246.209 188.63 246.149 188.63 246.149C188.63 246.149 188.27 245.789 186.76 245.789H183.41V246.96H186.77Z" fill="#482666"/>
<path d="M220.75 268.26L215.62 260.749H214.53V268.26H202.26V235.729H217.31C226.23 235.729 232 240.67 232 248.32C232 252.35 230.38 255.679 227.38 257.899L234.49 268.26H220.75ZM216.83 250.299C219.66 250.299 219.66 249.06 219.66 248.32C219.66 247.57 219.66 246.299 216.83 246.299H214.53V250.299H216.83Z" fill="#482666"/>
<path d="M232.131 268.26V235.729H258.561V246.189H244.321V246.669H256.871V256.92H244.321V257.809H259.091V268.26H232.131Z" fill="#482666"/>
<path d="M284.77 268.26L284.72 258.839L280.77 265.48H274.8L270.92 259.13V268.26H259.25V235.729H269.17L277.88 250.029L286.37 235.729H296.3L296.39 268.26H284.77Z" fill="#482666"/>
<path d="M314.141 268.83C303.971 268.83 296.301 261.6 296.301 252C296.301 242.41 303.971 235.17 314.141 235.17C324.311 235.17 331.981 242.4 331.981 252C331.981 261.59 324.311 268.83 314.141 268.83ZM314.141 246.06C310.861 246.06 308.651 248.44 308.651 251.99C308.651 255.54 310.861 257.92 314.141 257.92C317.421 257.92 319.631 255.54 319.631 251.99C319.631 248.45 317.431 246.06 314.141 246.06Z" fill="#482666"/>
<path d="M343.971 268.83C338.961 268.83 333.931 267.49 330.841 265.34L329.391 264.33L333.761 254.52L335.871 255.91C338.101 257.39 341.301 258.34 344.011 258.34C344.971 258.34 345.591 258.25 345.981 258.16C345.131 257.83 343.661 257.5 342.601 257.26C338.041 256.24 330.411 254.54 330.411 246.48C330.411 241.27 334.251 235.18 345.061 235.18C349.241 235.18 353.371 236.18 356.381 237.93L358.001 238.87L353.911 248.71L351.831 247.59C349.491 246.33 347.131 245.66 345.011 245.66C343.881 245.66 343.241 245.81 342.901 245.94C343.701 246.28 345.251 246.61 346.361 246.85C350.941 247.84 358.621 249.51 358.621 257.57C358.621 263.17 354.091 268.83 343.971 268.83Z" fill="#482666"/>
<path d="M375.77 268.26V246.35H367.1V235.729H396.68V246.35H388.04V268.26H375.77Z" fill="#482666"/>
<path d="M411.369 268.83C401.199 268.83 393.529 261.6 393.529 252C393.529 242.41 401.199 235.17 411.369 235.17C421.539 235.17 429.209 242.4 429.209 252C429.209 261.59 421.539 268.83 411.369 268.83ZM411.369 246.06C408.089 246.06 405.879 248.44 405.879 251.99C405.879 255.54 408.089 257.92 411.369 257.92C414.649 257.92 416.859 255.54 416.859 251.99C416.859 248.45 414.649 246.06 411.369 246.06Z" fill="#482666"/>
<path d="M429.131 268.26V235.729H444.631C455.351 235.729 462.551 242.27 462.551 251.99C462.551 261.71 455.351 268.249 444.631 268.249H429.131V268.26ZM444.301 257.609C448.051 257.609 450.191 255.559 450.191 251.999C450.191 248.439 448.041 246.389 444.301 246.389H441.391V257.609H444.301Z" fill="#482666"/>
<path d="M483.909 268.26L481.689 262.769H472.629L470.409 268.26H457.529L471.889 235.729H482.549L496.949 268.26H483.909ZM477.629 252.6L477.159 251.429L476.689 252.6H477.629Z" fill="#482666"/>
<path d="M505.85 268.83C500.84 268.83 495.81 267.49 492.72 265.34L491.27 264.33L495.64 254.52L497.75 255.91C499.98 257.39 503.18 258.34 505.89 258.34C506.85 258.34 507.47 258.25 507.86 258.16C507.01 257.83 505.54 257.5 504.48 257.26C499.92 256.24 492.29 254.54 492.29 246.48C492.29 241.27 496.13 235.18 506.94 235.18C511.12 235.18 515.25 236.18 518.26 237.93L519.88 238.87L515.79 248.71L513.71 247.59C511.37 246.33 509.01 245.66 506.89 245.66C505.76 245.66 505.12 245.81 504.78 245.94C505.58 246.28 507.13 246.61 508.24 246.85C512.82 247.84 520.5 249.51 520.5 257.57C520.5 263.17 515.97 268.83 505.85 268.83Z" fill="#482666"/>
<path d="M0 308.55V276.02H12.27V297.94H25.75V308.55H0Z" fill="#482666"/>
<path d="M46.7902 308.55L44.5702 303.06H35.5002L33.2802 308.55H20.4102L34.7702 276.02H45.4302L59.8302 308.55H46.7902ZM40.5002 292.89L40.0302 291.72L39.5602 292.89H40.5002Z" fill="#482666"/>
<path d="M68.7304 309.12C63.7204 309.12 58.6904 307.78 55.6004 305.63L54.1504 304.62L58.5204 294.81L60.6304 296.2C62.8604 297.68 66.0604 298.63 68.7704 298.63C69.7304 298.63 70.3504 298.54 70.7404 298.45C69.8904 298.12 68.4204 297.79 67.3604 297.55C62.8004 296.53 55.1704 294.83 55.1704 286.77C55.1704 281.56 59.0104 275.47 69.8204 275.47C74.0004 275.47 78.1304 276.47 81.1404 278.22L82.7604 279.16L78.6704 289L76.5904 287.88C74.2504 286.62 71.8904 285.95 69.7704 285.95C68.6404 285.95 68.0004 286.1 67.6604 286.23C68.4604 286.57 70.0104 286.9 71.1204 287.14C75.7004 288.13 83.3804 289.8 83.3804 297.86C83.3804 303.46 78.8504 309.12 68.7304 309.12Z" fill="#482666"/>
<path d="M94.5195 308.55V276.02H109.57C118.49 276.02 124.26 280.96 124.26 288.61C124.26 296.23 118.49 301.16 109.57 301.16H106.78V308.55H94.5195ZM109.09 290.59C111.92 290.59 111.92 289.35 111.92 288.61C111.92 287.86 111.92 286.59 109.09 286.59H106.79V290.59H109.09Z" fill="#482666"/>
<path d="M123.859 308.55V276.02H150.299V286.47H136.049V286.96H148.599V297.21H136.049V298.1H150.819V308.55H123.859Z" fill="#482666"/>
<path d="M169.47 308.55L164.34 301.04H163.25V308.55H150.98V276.02H166.03C174.95 276.02 180.72 280.96 180.72 288.61C180.72 292.64 179.1 295.97 176.1 298.19L183.21 308.55H169.47ZM165.56 290.59C168.39 290.59 168.39 289.35 168.39 288.61C168.39 287.86 168.39 286.59 165.56 286.59H163.26V290.59H165.56Z" fill="#482666"/>
<path d="M192.92 309.12C187.91 309.12 182.88 307.78 179.79 305.63L178.34 304.62L182.71 294.81L184.82 296.2C187.05 297.68 190.25 298.63 192.96 298.63C193.92 298.63 194.54 298.54 194.93 298.45C194.08 298.12 192.61 297.79 191.55 297.55C186.99 296.53 179.36 294.83 179.36 286.77C179.36 281.56 183.2 275.47 194.01 275.47C198.19 275.47 202.32 276.47 205.33 278.22L206.95 279.16L202.86 289L200.78 287.88C198.44 286.62 196.08 285.95 193.96 285.95C192.83 285.95 192.19 286.1 191.85 286.23C192.65 286.57 194.2 286.9 195.31 287.14C199.89 288.13 207.57 289.8 207.57 297.86C207.57 303.46 203.04 309.12 192.92 309.12Z" fill="#482666"/>
<path d="M223.35 309.12C213.18 309.12 205.51 301.89 205.51 292.29C205.51 282.7 213.18 275.46 223.35 275.46C233.52 275.46 241.19 282.69 241.19 292.29C241.19 301.88 233.52 309.12 223.35 309.12ZM223.35 286.35C220.07 286.35 217.86 288.73 217.86 292.28C217.86 295.83 220.07 298.21 223.35 298.21C226.63 298.21 228.84 295.83 228.84 292.28C228.84 288.74 226.64 286.35 223.35 286.35Z" fill="#482666"/>
<path d="M262.539 308.55L253.219 297.29V308.55H241.109V276.02H250.829L260.159 287.28V276.02H272.269V308.55H262.539Z" fill="#482666"/>
<path d="M295.489 308.55L293.269 303.06H284.209L281.989 308.55H269.109L283.469 276.02H294.129L308.529 308.55H295.489ZM289.199 292.89L288.729 291.72L288.259 292.89H289.199Z" fill="#482666"/>
<path d="M317.43 309.12C312.42 309.12 307.39 307.78 304.3 305.63L302.85 304.62L307.22 294.81L309.33 296.2C311.56 297.68 314.76 298.63 317.47 298.63C318.43 298.63 319.05 298.54 319.44 298.45C318.59 298.12 317.12 297.79 316.06 297.55C311.5 296.53 303.87 294.83 303.87 286.77C303.87 281.56 307.71 275.47 318.52 275.47C322.7 275.47 326.83 276.47 329.84 278.22L331.46 279.16L327.37 289L325.29 287.88C322.95 286.62 320.59 285.95 318.47 285.95C317.34 285.95 316.7 286.1 316.36 286.23C317.16 286.57 318.71 286.9 319.82 287.14C324.4 288.13 332.08 289.8 332.08 297.86C332.08 303.46 327.55 309.12 317.43 309.12Z" fill="#482666"/>
<path d="M368.85 315.37C363.76 315.37 360.31 313.68 355.44 308.71C347.23 307.02 341.77 300.5 341.77 292.28C341.77 282.69 349.44 275.45 359.61 275.45C369.78 275.45 377.45 282.68 377.45 292.28C377.45 296.3 376.13 299.95 373.78 302.81L379.55 309.66L378.42 311.04C376.11 313.83 372.71 315.37 368.85 315.37ZM359.61 286.35C356.33 286.35 354.12 288.73 354.12 292.28C354.12 295.83 356.33 298.21 359.61 298.21C362.89 298.21 365.1 295.83 365.1 292.28C365.1 288.74 362.89 286.35 359.61 286.35Z" fill="#482666"/>
<path d="M392.539 309.12C382.889 309.12 377.119 303.4 377.119 293.83V276.03H389.389V293.59C389.389 298.23 391.409 298.23 392.619 298.23C393.809 298.23 395.809 298.23 395.809 293.59V276.03H407.959V293.83C407.959 303.4 402.189 309.12 392.539 309.12Z" fill="#482666"/>
<path d="M409.09 308.55V276.02H435.52V286.47H421.28V286.96H433.83V297.21H421.28V298.1H436.05V308.55H409.09Z" fill="#482666"/>
<path d="M447.961 308.55V276.02H474.391V286.47H460.141V286.96H472.701V297.21H460.141V298.1H474.921V308.55H447.961Z" fill="#482666"/>
<path d="M493.56 308.55L488.43 301.04H487.34V308.55H475.07V276.02H490.12C499.04 276.02 504.81 280.96 504.81 288.61C504.81 292.64 503.19 295.97 500.19 298.19L507.3 308.55H493.56ZM489.65 290.59C492.48 290.59 492.48 289.35 492.48 288.61C492.48 287.86 492.48 286.59 489.65 286.59H487.35V290.59H489.65Z" fill="#482666"/>
<path d="M504.949 308.55V276.02H531.379V286.47H517.129V286.96H529.679V297.21H517.129V298.1H531.899V308.55H504.949Z" fill="#482666"/>
<path d="M544.131 309.12C539.121 309.12 534.091 307.78 531.001 305.63L529.551 304.62L533.921 294.81L536.031 296.2C538.261 297.68 541.461 298.63 544.171 298.63C545.131 298.63 545.751 298.54 546.141 298.45C545.291 298.12 543.821 297.79 542.761 297.55C538.201 296.53 530.571 294.83 530.571 286.77C530.571 281.56 534.411 275.47 545.221 275.47C549.401 275.47 553.531 276.47 556.541 278.22L558.161 279.16L554.071 289L551.991 287.88C549.651 286.62 547.291 285.95 545.171 285.95C544.041 285.95 543.401 286.1 543.061 286.23C543.861 286.57 545.411 286.9 546.521 287.14C551.101 288.13 558.781 289.8 558.781 297.86C558.781 303.46 554.251 309.12 544.131 309.12Z" fill="#482666"/>
<path d="M563.589 308.91C559.809 308.91 556.849 306.11 556.849 302.53C556.849 300.85 557.489 299.36 558.559 298.25H558.549L556.699 276.01H570.469L568.569 298.24C569.639 299.35 570.279 300.84 570.279 302.53C570.289 306.17 567.409 308.91 563.589 308.91Z" fill="#482666"/>
<path d="M60.4002 248.12C60.4002 250.46 58.5402 252.28 55.8402 252.28C53.1402 252.28 51.2402 250.46 51.2402 248.12C51.2402 245.78 53.1402 243.88 55.8402 243.88C58.5402 243.88 60.4002 245.78 60.4002 248.12ZM60.4002 272.34H51.2802L52.7702 254.54H58.8602L60.4002 272.34Z" fill="white"/>
<path d="M63.2598 252C63.2598 243.4 69.8398 237.31 78.7998 237.31C84.0098 237.31 88.1998 239.21 90.9498 242.64L85.8598 247.24C84.0798 245.1 81.8998 243.93 79.1998 243.93C74.5598 243.93 71.3298 247.16 71.3298 252C71.3298 256.84 74.5598 260.07 79.1998 260.07C81.8998 260.07 84.0798 258.9 85.8598 256.76L90.9498 261.36C88.2098 264.79 84.0098 266.69 78.7998 266.69C69.8398 266.69 63.2598 260.59 63.2598 252Z" fill="white"/>
<path d="M117.18 259.949V266.119H94.5V237.869H116.66V244.049H102.41V248.809H114.96V254.779H102.41V259.949H117.18Z" fill="white"/>
<path d="M121.621 237.869H129.611V259.789H143.091V266.129H121.621V237.869Z" fill="white"/>
<path d="M168.93 259.949V266.119H146.25V237.869H168.41V244.049H154.16V248.809H166.71V254.779H154.16V259.949H168.93Z" fill="white"/>
<path d="M200.251 258.38C200.251 263.26 196.211 266.13 188.631 266.13H173.371V237.88H187.821C195.251 237.88 198.881 240.91 198.881 245.27C198.881 247.97 197.511 250.15 195.091 251.4C198.271 252.52 200.251 254.94 200.251 258.38ZM181.281 243.64V249.09H186.771C189.431 249.09 190.811 248.16 190.811 246.34C190.811 244.56 189.441 243.64 186.771 243.64H181.281ZM192.171 257.49C192.171 255.55 190.721 254.62 187.971 254.62H181.271V260.35H187.971C190.721 260.35 192.171 259.42 192.171 257.49Z" fill="white"/>
<path d="M216.75 258.62H212.39V266.13H204.4V237.88H217.32C225.03 237.88 229.87 241.88 229.87 248.33C229.87 252.49 227.85 255.55 224.34 257.25L230.43 266.13H221.87L216.75 258.62ZM216.83 244.17H212.39V252.44H216.83C220.14 252.44 221.79 250.91 221.79 248.32C221.8 245.7 220.14 244.17 216.83 244.17Z" fill="white"/>
<path d="M256.951 259.949V266.119H234.271V237.869H256.431V244.049H242.181V248.809H254.731V254.779H242.181V259.949H256.951Z" fill="white"/>
<path d="M286.901 266.12L286.821 251.15L279.561 263.34H276.001L268.781 251.56V266.13H261.391V237.88H267.971L277.901 254.19L287.591 237.88H294.171L294.251 266.13H286.901V266.12Z" fill="white"/>
<path d="M298.441 252C298.441 243.52 305.101 237.31 314.141 237.31C323.181 237.31 329.841 243.52 329.841 252C329.841 260.48 323.181 266.69 314.141 266.69C305.101 266.69 298.441 260.47 298.441 252ZM321.771 252C321.771 247.12 318.421 243.93 314.141 243.93C309.861 243.93 306.511 247.12 306.511 252C306.511 256.88 309.861 260.07 314.141 260.07C318.421 260.07 321.771 256.88 321.771 252Z" fill="white"/>
<path d="M332.061 263.579L334.681 257.689C337.181 259.349 340.731 260.479 344.001 260.479C347.311 260.479 348.601 259.549 348.601 258.179C348.601 253.699 332.541 256.969 332.541 246.479C332.541 241.439 336.661 237.319 345.051 237.319C348.721 237.319 352.521 238.169 355.301 239.779L352.841 245.709C350.141 244.259 347.471 243.529 345.011 243.529C341.661 243.529 340.451 244.659 340.451 246.069C340.451 250.389 356.471 247.159 356.471 257.569C356.471 262.489 352.351 266.689 343.961 266.689C339.331 266.689 334.731 265.439 332.061 263.579Z" fill="white"/>
<path d="M377.91 244.209H369.23V237.869H394.54V244.209H385.9V266.129H377.91V244.209Z" fill="white"/>
<path d="M395.67 252C395.67 243.52 402.33 237.31 411.37 237.31C420.41 237.31 427.07 243.52 427.07 252C427.07 260.48 420.41 266.69 411.37 266.69C402.33 266.69 395.67 260.47 395.67 252ZM419 252C419 247.12 415.65 243.93 411.37 243.93C407.09 243.93 403.74 247.12 403.74 252C403.74 256.88 407.09 260.07 411.37 260.07C415.65 260.07 419 256.88 419 252Z" fill="white"/>
<path d="M431.271 237.869H444.632C453.992 237.869 460.411 243.319 460.411 251.999C460.411 260.679 453.992 266.129 444.632 266.129H431.271V237.869ZM444.301 259.749C449.101 259.749 452.331 256.879 452.331 251.999C452.331 247.119 449.101 244.249 444.301 244.249H439.262V259.749H444.301Z" fill="white"/>
<path d="M483.131 260.629H471.181L468.961 266.119H460.811L473.281 237.869H481.151L493.661 266.119H485.351L483.131 260.629ZM480.791 254.739L477.161 245.699L473.531 254.739H480.791Z" fill="white"/>
<path d="M493.951 263.579L496.571 257.689C499.071 259.349 502.621 260.479 505.891 260.479C509.201 260.479 510.491 259.549 510.491 258.179C510.491 253.699 494.431 256.969 494.431 246.479C494.431 241.439 498.551 237.319 506.941 237.319C510.611 237.319 514.411 238.169 517.191 239.779L514.731 245.709C512.031 244.259 509.361 243.529 506.901 243.529C503.551 243.529 502.341 244.659 502.341 246.069C502.341 250.389 518.361 247.159 518.361 257.569C518.361 262.489 514.241 266.689 505.851 266.689C501.211 266.689 496.611 265.439 493.951 263.579Z" fill="white"/>
<path d="M2.14062 278.159H10.1306V300.079H23.6106V306.419H2.14062V278.159Z" fill="white"/>
<path d="M46.0114 300.919H34.0614L31.8414 306.409H23.6914L36.1614 278.159H44.0314L56.5414 306.409H48.2314L46.0114 300.919ZM43.6714 295.029L40.0414 285.989L36.4114 295.029H43.6714Z" fill="white"/>
<path d="M56.8301 303.869L59.4501 297.979C61.9501 299.639 65.5001 300.769 68.7701 300.769C72.0801 300.769 73.3701 299.839 73.3701 298.469C73.3701 293.989 57.3101 297.259 57.3101 286.769C57.3101 281.729 61.4301 277.609 69.8201 277.609C73.4901 277.609 77.2901 278.459 80.0701 280.069L77.6101 285.999C74.9101 284.549 72.2401 283.819 69.7801 283.819C66.4301 283.819 65.2201 284.949 65.2201 286.359C65.2201 290.679 81.2401 287.449 81.2401 297.859C81.2401 302.779 77.1201 306.979 68.7301 306.979C64.0901 306.979 59.4901 305.729 56.8301 303.869Z" fill="white"/>
<path d="M122.13 288.609C122.13 295.029 117.29 299.019 109.58 299.019H104.66V306.409H96.6699V278.159H109.59C117.28 278.159 122.13 282.159 122.13 288.609ZM114.06 288.609C114.06 285.989 112.41 284.449 109.1 284.449H104.66V292.719H109.1C112.4 292.729 114.06 291.199 114.06 288.609Z" fill="white"/>
<path d="M148.69 300.239V306.409H126V278.159H148.16V284.339H133.91V289.099H146.46V295.069H133.91V300.239H148.69Z" fill="white"/>
<path d="M165.481 298.91H161.121V306.42H153.131V278.17H166.051C173.761 278.17 178.601 282.17 178.601 288.62C178.601 292.78 176.581 295.84 173.071 297.54L179.161 306.42H170.601L165.481 298.91ZM165.561 284.46H161.121V292.73H165.561C168.871 292.73 170.521 291.2 170.521 288.61C170.521 285.99 168.871 284.46 165.561 284.46Z" fill="white"/>
<path d="M181.01 303.869L183.63 297.979C186.13 299.639 189.68 300.769 192.95 300.769C196.26 300.769 197.55 299.839 197.55 298.469C197.55 293.989 181.49 297.259 181.49 286.769C181.49 281.729 185.61 277.609 194 277.609C197.67 277.609 201.47 278.459 204.25 280.069L201.79 285.999C199.09 284.549 196.42 283.819 193.96 283.819C190.61 283.819 189.4 284.949 189.4 286.359C189.4 290.679 205.42 287.449 205.42 297.859C205.42 302.779 201.3 306.979 192.91 306.979C188.28 306.979 183.68 305.729 181.01 303.869Z" fill="white"/>
<path d="M207.65 292.29C207.65 283.81 214.31 277.6 223.35 277.6C232.39 277.6 239.05 283.81 239.05 292.29C239.05 300.77 232.39 306.98 223.35 306.98C214.31 306.98 207.65 300.76 207.65 292.29ZM230.98 292.29C230.98 287.41 227.63 284.22 223.35 284.22C219.07 284.22 215.72 287.41 215.72 292.29C215.72 297.17 219.07 300.36 223.35 300.36C227.63 300.36 230.98 297.17 230.98 292.29Z" fill="white"/>
<path d="M270.13 278.159V306.409H263.55L251.08 291.359V306.409H243.25V278.159H249.83L262.3 293.209V278.159H270.13Z" fill="white"/>
<path d="M294.711 300.919H282.761L280.541 306.409H272.391L284.861 278.159H292.731L305.241 306.409H296.931L294.711 300.919ZM292.371 295.029L288.741 285.989L285.111 295.029H292.371Z" fill="white"/>
<path d="M305.531 303.869L308.151 297.979C310.651 299.639 314.201 300.769 317.471 300.769C320.781 300.769 322.071 299.839 322.071 298.469C322.071 293.989 306.011 297.259 306.011 286.769C306.011 281.729 310.131 277.609 318.521 277.609C322.191 277.609 325.991 278.459 328.771 280.069L326.311 285.999C323.611 284.549 320.941 283.819 318.481 283.819C315.131 283.819 313.921 284.949 313.921 286.359C313.921 290.679 329.941 287.449 329.941 297.859C329.941 302.779 325.821 306.979 317.431 306.979C312.791 306.979 308.191 305.729 305.531 303.869Z" fill="white"/>
<path d="M376.76 309.68C374.86 311.98 372.08 313.23 368.85 313.23C364.25 313.23 361.22 311.66 356.5 306.73C349.07 305.48 343.91 299.75 343.91 292.28C343.91 283.8 350.57 277.59 359.61 277.59C368.65 277.59 375.31 283.8 375.31 292.28C375.31 298.7 371.48 303.82 365.7 305.92C366.83 307.13 367.8 307.53 369.01 307.53C370.54 307.53 372.04 306.84 373.29 305.55L376.76 309.68ZM359.61 300.36C363.89 300.36 367.24 297.17 367.24 292.29C367.24 287.41 363.89 284.22 359.61 284.22C355.33 284.22 351.98 287.41 351.98 292.29C351.98 297.17 355.33 300.36 359.61 300.36Z" fill="white"/>
<path d="M379.26 293.819V278.159H387.25V293.579C387.25 298.419 389.27 300.359 392.62 300.359C395.93 300.359 397.95 298.419 397.95 293.579V278.159H405.82V293.819C405.82 302.249 400.9 306.979 392.54 306.979C384.18 306.979 379.26 302.249 379.26 293.819Z" fill="white"/>
<path d="M433.91 300.239V306.409H411.23V278.159H433.39V284.339H419.14V289.099H431.69V295.069H419.14V300.239H433.91Z" fill="white"/>
<path d="M472.782 300.239V306.409H450.102V278.159H472.262V284.339H458.012V289.099H470.562V295.069H458.012V300.239H472.782Z" fill="white"/>
<path d="M489.571 298.91H485.211V306.42H477.221V278.17H490.141C497.851 278.17 502.691 282.17 502.691 288.62C502.691 292.78 500.671 295.84 497.161 297.54L503.251 306.42H494.691L489.571 298.91ZM489.651 284.46H485.211V292.73H489.651C492.961 292.73 494.611 291.2 494.611 288.61C494.611 285.99 492.961 284.46 489.651 284.46Z" fill="white"/>
<path d="M529.77 300.239V306.409H507.09V278.159H529.25V284.339H515V289.099H527.55V295.069H515V300.239H529.77Z" fill="white"/>
<path d="M532.23 303.869L534.85 297.979C537.35 299.639 540.9 300.769 544.17 300.769C547.48 300.769 548.771 299.839 548.771 298.469C548.771 293.989 532.711 297.259 532.711 286.769C532.711 281.729 536.83 277.609 545.22 277.609C548.89 277.609 552.69 278.459 555.47 280.069L553.01 285.999C550.31 284.549 547.64 283.819 545.18 283.819C541.83 283.819 540.62 284.949 540.62 286.359C540.62 290.679 556.641 287.449 556.641 297.859C556.641 302.779 552.52 306.979 544.13 306.979C539.49 306.979 534.89 305.729 532.23 303.869Z" fill="white"/>
<path d="M558.99 302.539C558.99 300.159 560.89 298.379 563.59 298.379C566.29 298.379 568.15 300.159 568.15 302.539C568.15 304.879 566.29 306.779 563.59 306.779C560.89 306.779 558.99 304.879 558.99 302.539ZM559.03 278.159H568.15L566.62 296.119H560.53L559.03 278.159Z" fill="white"/>
</g>
<defs>
<clipPath id="clip0_135_627">
<rect width="570.48" height="318.58" fill="white"/>
</clipPath>
</defs>
</svg>
